<svg width="100" height="100" viewBox="0 0 100 100" fill="none" xmlns="http://www.w3.org/2000/svg">
<circle cx="50" cy="50" r="50" fill="#222222"/>
<path d="M72.1136 58.2534L66.1625 58.2536C64.6445 60.6172 62.6211 62.6178 60.2427 64.1143H72.1136V68.5073L81.0003 61.1846L72.1136 53.8604V58.2534Z" fill="white"/>
<path d="M50.2519 64.1085C59.0988 64.0481 66.2539 56.8623 66.2539 48.0007C66.2539 39.5963 59.817 32.7023 51.6055 31.9613V27.4929L42.8164 34.8171L51.6055 42.1399V37.8949C56.5615 38.6133 60.3945 42.8489 60.3945 48.0007C60.3945 53.6541 55.794 58.2546 50.1406 58.2546H31V64.114H50.2585C50.2556 64.1123 50.2547 64.1103 50.2519 64.1085Z" fill="white"/>
<path d="M42.9872 55.3248C41.0798 53.4616 39.8867 50.8709 39.8867 48.0006C39.8867 44.596 41.5729 41.5948 44.1352 39.7289L39.5319 35.8933C36.1644 38.8466 34.0273 43.1697 34.0273 48.0006C34.0273 50.6476 34.707 53.1217 35.838 55.3248H42.9872Z" fill="white"/>
</svg>
