<svg width="100" height="100" viewBox="0 0 100 100" fill="none" xmlns="http://www.w3.org/2000/svg">
<circle cx="50" cy="50" r="50" fill="#222222"/>
<path d="M39.236 62.36C37.292 62.36 35.468 61.988 33.764 61.244C32.084 60.5 30.596 59.468 29.3 58.148C28.028 56.804 27.032 55.268 26.312 53.54C25.592 51.788 25.232 49.916 25.232 47.924C25.232 45.956 25.58 44.108 26.276 42.38C26.996 40.628 27.992 39.092 29.264 37.772C30.56 36.452 32.048 35.42 33.728 34.676C35.432 33.908 37.268 33.524 39.236 33.524C40.964 33.524 42.536 33.776 43.952 34.28C45.368 34.784 46.736 35.588 48.056 36.692C48.368 36.932 48.5 37.244 48.452 37.628C48.404 37.988 48.224 38.24 47.912 38.384C47.84 38.672 47.612 38.852 47.228 38.924C46.868 38.996 46.508 38.888 46.148 38.6C45.212 37.784 44.192 37.184 43.088 36.8C41.984 36.392 40.7 36.188 39.236 36.188C37.676 36.188 36.212 36.5 34.844 37.124C33.5 37.748 32.312 38.6 31.28 39.68C30.248 40.76 29.432 42.008 28.832 43.424C28.256 44.84 27.968 46.34 27.968 47.924C27.968 49.556 28.256 51.08 28.832 52.496C29.432 53.912 30.248 55.16 31.28 56.24C32.312 57.32 33.5 58.172 34.844 58.796C36.212 59.396 37.676 59.696 39.236 59.696C41.828 59.696 44.192 58.856 46.328 57.176C46.76 56.84 47.216 56.792 47.696 57.032C48.2 57.272 48.452 57.68 48.452 58.256C48.452 58.64 48.32 58.976 48.056 59.264C46.832 60.392 45.464 61.196 43.952 61.676C42.44 62.132 40.868 62.36 39.236 62.36ZM73.9934 42.344C74.8574 42.344 75.2654 42.716 75.2174 43.46C75.1694 44.252 74.6174 44.648 73.5614 44.648H70.7174L69.6374 50.84H72.5534C72.9614 50.84 73.2614 50.948 73.4534 51.164C73.6454 51.356 73.7414 51.608 73.7414 51.92C73.7414 52.232 73.5974 52.52 73.3094 52.784C73.0454 53.024 72.6374 53.144 72.0854 53.144H69.1334L67.8374 60.596C67.6454 61.532 67.1054 62 66.2174 62C65.8334 62 65.5334 61.88 65.3174 61.64C65.1254 61.376 65.0774 61.028 65.1734 60.596L66.4334 53.144H59.4494L58.1534 60.596C58.0814 60.98 57.9014 61.316 57.6134 61.604C57.3254 61.868 56.9774 62 56.5694 62C56.1854 62 55.8854 61.88 55.6694 61.64C55.4774 61.4 55.4174 61.052 55.4894 60.596L56.7854 53.144H53.7614C53.3774 53.144 53.0774 53.048 52.8614 52.856C52.6694 52.664 52.5854 52.412 52.6094 52.1C52.6334 51.692 52.7894 51.38 53.0774 51.164C53.3654 50.948 53.7254 50.84 54.1574 50.84H57.2894L58.3334 44.648H55.3454C54.4814 44.648 54.0494 44.288 54.0494 43.568C54.0494 42.752 54.5894 42.344 55.6694 42.344H58.8374L60.1334 35.108C60.2054 34.7 60.3854 34.364 60.6734 34.1C60.9614 33.812 61.3094 33.668 61.7174 33.668C62.1014 33.668 62.3894 33.8 62.5814 34.064C62.7974 34.328 62.8694 34.664 62.7974 35.072L61.5014 42.344H68.5214L69.8174 35.108C69.8654 34.7 70.0334 34.364 70.3214 34.1C70.6334 33.812 70.9934 33.668 71.4014 33.668C71.8574 33.668 72.1574 33.812 72.3014 34.1C72.4694 34.364 72.5174 34.688 72.4454 35.072L71.1854 42.344H73.9934ZM66.9374 50.84L68.0174 44.648H60.9974L59.9534 50.84H66.9374Z" fill="white"/>
</svg>
