<svg width="100" height="100" viewBox="0 0 100 100" fill="none" xmlns="http://www.w3.org/2000/svg">
<circle cx="50" cy="50" r="50" fill="#222222"/>
<path d="M72.5948 32.7364C71.542 28.8364 63.7066 25 50.0002 25C36.2939 25 28.4575 28.8364 27.4057 32.7364C27.3293 32.87 27.2729 33.0164 27.2729 33.1818V33.6364V44.0909V44.5455V45V55V55.4545V55.9091V66.8182C27.2729 66.9655 27.312 67.1045 27.3793 67.2282C28.4529 71.6782 38.0584 75 50.0002 75C61.9148 75 71.5048 71.6918 72.6139 67.2582C72.6866 67.1282 72.7275 66.9782 72.7275 66.8182V55.9091V55.4545V55V45V44.5455V44.0909V33.6364V33.1818C72.7275 33.0164 72.6711 32.87 72.5948 32.7364ZM70.8375 55.8955C70.812 56.0055 70.7766 56.1145 70.732 56.2255C70.6957 56.3155 70.6511 56.4055 70.602 56.4955C70.5411 56.6073 70.4729 56.7191 70.392 56.8309C70.332 56.9155 70.2639 56.9991 70.193 57.0827C70.092 57.2018 69.9848 57.3209 69.8629 57.4391C69.7893 57.5109 69.7084 57.5818 69.6266 57.6536C69.4775 57.7836 69.322 57.9127 69.1484 58.0409C69.0739 58.0964 68.9939 58.15 68.9148 58.2045C68.7093 58.3464 68.4948 58.4873 68.2593 58.6255C68.1975 58.6627 68.1311 58.6982 68.0666 58.7345C67.7957 58.8873 67.513 59.0391 67.2075 59.1864C67.1684 59.2055 67.1275 59.2236 67.0875 59.2418C66.7466 59.4027 66.3902 59.5609 66.0093 59.7136C65.9984 59.7182 65.9875 59.7218 65.9766 59.7264C63.912 60.5509 61.2711 61.2445 58.1939 61.6991C58.1784 61.7009 58.163 61.7027 58.1475 61.7055C57.5493 61.7936 56.9357 61.8718 56.3057 61.9409C56.2029 61.9518 56.0948 61.9591 55.9911 61.97C55.4411 62.0273 54.8848 62.08 54.312 62.1218C54.0502 62.1409 53.7757 62.15 53.5093 62.1664C53.0784 62.1918 52.652 62.22 52.2102 62.2355C51.4884 62.2582 50.752 62.2727 50.0002 62.2727C49.2484 62.2727 48.512 62.2582 47.7893 62.2327C47.3475 62.2173 46.9211 62.1882 46.4902 62.1636C46.2239 62.1482 45.9493 62.1382 45.6875 62.1191C45.1148 62.0773 44.5584 62.0245 44.0084 61.9673C43.9048 61.9564 43.7966 61.9491 43.6939 61.9382C43.0639 61.8691 42.4502 61.79 41.852 61.7027C41.8366 61.7009 41.8211 61.6991 41.8057 61.6964C38.7284 61.2418 36.0875 60.5482 34.0229 59.7236C34.012 59.72 34.0011 59.7155 33.9902 59.7109C33.6093 59.5582 33.252 59.4 32.912 59.2391C32.8729 59.22 32.8311 59.2018 32.792 59.1836C32.4866 59.0364 32.2039 58.8855 31.9329 58.7318C31.8693 58.6955 31.802 58.66 31.7402 58.6227C31.5048 58.4845 31.2902 58.3436 31.0848 58.2018C31.0066 58.1473 30.9257 58.0936 30.8511 58.0382C30.6775 57.91 30.522 57.7809 30.3729 57.6509C30.292 57.58 30.2102 57.5091 30.1366 57.4364C30.0148 57.3182 29.9075 57.2 29.8066 57.08C29.7357 56.9964 29.6675 56.9127 29.6075 56.8282C29.5275 56.7164 29.4593 56.6045 29.3975 56.4927C29.3484 56.4027 29.3048 56.3127 29.2675 56.2227C29.2229 56.1127 29.1875 56.0027 29.162 55.8927C29.1284 55.7482 29.0911 55.6009 29.0911 55.4545C29.0911 55.3518 29.1029 55.2491 29.1193 55.1473C29.142 55.01 29.1293 54.8727 29.0911 54.7427V47.9936C29.1166 48.0173 29.1484 48.04 29.1748 48.0636C29.3729 48.2382 29.5748 48.4118 29.802 48.5791C33.2266 51.1691 40.0748 53.1818 50.0002 53.1818C59.8839 53.1818 66.7148 51.1855 70.1539 48.6109C70.4284 48.4109 70.6757 48.2045 70.9084 47.9945L70.9093 47.9936V54.7427C70.8711 54.8727 70.8584 55.01 70.8811 55.1473C70.8984 55.2491 70.9093 55.3518 70.9093 55.4545C70.9093 55.6009 70.872 55.7482 70.8375 55.8955ZM70.9093 37.0845V43.8336C70.8711 43.9636 70.8584 44.1009 70.8811 44.2382C70.8984 44.34 70.9093 44.4427 70.9093 44.5455C70.9093 44.6918 70.872 44.8391 70.8375 44.9864C70.812 45.0964 70.7766 45.2055 70.732 45.3164C70.6957 45.4064 70.6511 45.4964 70.602 45.5864C70.5411 45.6982 70.4729 45.81 70.392 45.9218C70.332 46.0064 70.2639 46.09 70.193 46.1736C70.092 46.2927 69.9848 46.4118 69.8629 46.53C69.7893 46.6018 69.7084 46.6727 69.6266 46.7445C69.4775 46.8745 69.322 47.0036 69.1484 47.1318C69.0739 47.1873 68.9939 47.2409 68.9148 47.2955C68.7093 47.4373 68.4948 47.5782 68.2593 47.7164C68.1975 47.7536 68.1311 47.7891 68.0666 47.8255C67.7957 47.9782 67.513 48.13 67.2075 48.2773C67.1684 48.2964 67.1275 48.3145 67.0875 48.3327C66.7466 48.4936 66.3902 48.6518 66.0093 48.8045C65.9984 48.8091 65.9875 48.8127 65.9766 48.8173C63.912 49.6418 61.2711 50.3355 58.1939 50.79C58.1784 50.7918 58.163 50.7936 58.1475 50.7964C57.5493 50.8845 56.9357 50.9627 56.3057 51.0318C56.2029 51.0427 56.0948 51.05 55.9911 51.0609C55.4411 51.1182 54.8848 51.1709 54.312 51.2127C54.0502 51.2318 53.7757 51.2409 53.5093 51.2573C53.0784 51.2827 52.652 51.3109 52.2102 51.3264C51.4884 51.3491 50.752 51.3636 50.0002 51.3636C49.2484 51.3636 48.512 51.3491 47.7893 51.3236C47.3475 51.3082 46.9211 51.2791 46.4902 51.2545C46.2239 51.2391 45.9493 51.2291 45.6875 51.21C45.1148 51.1682 44.5584 51.1155 44.0084 51.0582C43.9048 51.0473 43.7966 51.04 43.6939 51.0291C43.0639 50.96 42.4502 50.8809 41.852 50.7936C41.8366 50.7918 41.8211 50.79 41.8057 50.7873C38.7284 50.3327 36.0875 49.6391 34.0229 48.8145C34.012 48.8109 34.0011 48.8064 33.9902 48.8018C33.6093 48.6491 33.252 48.4909 32.912 48.33C32.8729 48.3109 32.8311 48.2927 32.792 48.2745C32.4866 48.1273 32.2039 47.9764 31.9329 47.8227C31.8693 47.7864 31.802 47.7509 31.7402 47.7136C31.5048 47.5755 31.2902 47.4345 31.0848 47.2927C31.0066 47.2382 30.9257 47.1845 30.8511 47.1291C30.6775 47.0009 30.522 46.8718 30.3729 46.7418C30.292 46.6709 30.2102 46.6 30.1366 46.5273C30.0148 46.4091 29.9075 46.2909 29.8066 46.1709C29.7357 46.0873 29.6675 46.0036 29.6075 45.9191C29.5275 45.8073 29.4593 45.6955 29.3975 45.5836C29.3484 45.4936 29.3048 45.4036 29.2675 45.3136C29.2229 45.2036 29.1875 45.0936 29.162 44.9836C29.1284 44.8391 29.0911 44.6918 29.0911 44.5455C29.0911 44.4427 29.1029 44.34 29.1193 44.2382C29.142 44.1009 29.1293 43.9636 29.0911 43.8336V37.0845C29.2002 37.1836 29.3248 37.2809 29.4429 37.3791C29.5084 37.4336 29.5693 37.4882 29.6384 37.5427C29.9111 37.7573 30.2057 37.9691 30.5248 38.1755C30.5911 38.2182 30.6657 38.26 30.7348 38.3027C31.002 38.4691 31.2848 38.6318 31.582 38.7918C31.692 38.8509 31.802 38.9091 31.9157 38.9673C32.2475 39.1364 32.5957 39.3009 32.962 39.46C33.022 39.4864 33.0766 39.5136 33.1375 39.5391C33.5639 39.72 34.0166 39.8927 34.4875 40.06C34.6175 40.1064 34.7539 40.15 34.8875 40.1955C35.262 40.3218 35.6493 40.4427 36.0502 40.56C36.1948 40.6018 36.3366 40.6455 36.4848 40.6855C37.0166 40.8327 37.5657 40.9727 38.142 41.1018C38.2211 41.12 38.3066 41.1345 38.3866 41.1518C38.8948 41.2627 39.422 41.3655 39.9639 41.4618C40.1475 41.4945 40.3339 41.5255 40.5211 41.5564C41.0366 41.6409 41.5675 41.7182 42.112 41.7891C42.252 41.8073 42.3857 41.8282 42.5275 41.8455C43.2039 41.9273 43.9039 41.9973 44.6229 42.0573C44.8002 42.0718 44.9848 42.0827 45.1648 42.0955C45.7402 42.1373 46.3284 42.1718 46.9302 42.1991C47.1493 42.2091 47.3675 42.2191 47.5911 42.2273C48.3748 42.2536 49.1729 42.2727 50.0002 42.2727C50.8275 42.2727 51.6257 42.2536 52.4093 42.2273C52.632 42.2191 52.8502 42.2091 53.0702 42.1991C53.672 42.1718 54.2602 42.1373 54.8357 42.0955C55.0157 42.0818 55.1993 42.0718 55.3775 42.0573C56.0966 41.9982 56.7966 41.9273 57.4729 41.8455C57.6148 41.8282 57.7484 41.8073 57.8884 41.7891C58.4329 41.7182 58.9629 41.6409 59.4793 41.5564C59.6666 41.5255 59.8529 41.4945 60.0366 41.4618C60.5784 41.3655 61.1057 41.2627 61.6139 41.1518C61.6939 41.1345 61.7793 41.1191 61.8584 41.1018C62.4348 40.9727 62.9839 40.8318 63.5157 40.6855C63.6639 40.6445 63.8057 40.6018 63.9502 40.56C64.3511 40.4427 64.7384 40.3218 65.1129 40.1955C65.2466 40.15 65.3829 40.1064 65.5129 40.06C65.9839 39.8927 66.4375 39.72 66.8629 39.5391C66.9239 39.5136 66.9784 39.4864 67.0384 39.46C67.4048 39.3 67.7529 39.1364 68.0848 38.9673C68.1984 38.9091 68.3093 38.8509 68.4184 38.7918C68.7157 38.6327 68.9984 38.47 69.2657 38.3027C69.3348 38.26 69.4093 38.2182 69.4757 38.1755C69.7948 37.9691 70.0893 37.7582 70.362 37.5427C70.4302 37.4882 70.4911 37.4336 70.5575 37.3791C70.6757 37.2809 70.8002 37.1836 70.9093 37.0845ZM50.0002 26.8182C62.3229 26.8182 70.9093 30.4109 70.9093 33.6364C70.9093 36.8618 62.3229 40.4545 50.0002 40.4545C37.6775 40.4545 29.0911 36.8618 29.0911 33.6364C29.0911 30.4109 37.6775 26.8182 50.0002 26.8182ZM70.9093 66.5482C70.8966 66.5882 70.8875 66.6291 70.8802 66.6709C70.3648 69.8155 61.8511 73.1818 50.0002 73.1818C38.1493 73.1818 29.6357 69.8155 29.1202 66.6709C29.1129 66.63 29.1029 66.59 29.0911 66.5518V58.9027C29.1166 58.9264 29.1484 58.9491 29.1748 58.9727C29.3729 59.1473 29.5748 59.3209 29.802 59.4882C33.2266 62.0782 40.0748 64.0909 50.0002 64.0909C59.8839 64.0909 66.7148 62.0945 70.1539 59.52C70.4284 59.32 70.6757 59.1136 70.9084 58.9036L70.9093 58.9027V66.5482Z" fill="white"/>
</svg>
