<svg width="100" height="100" viewBox="0 0 100 100" fill="none" xmlns="http://www.w3.org/2000/svg">
<circle cx="50" cy="50" r="50" fill="#222222"/>
<path d="M47.3643 37.1312C45.4705 37.8916 43.433 38.4478 41.3601 38.4478C35.433 34.9874 27.3893 38.5937 27.3893 46.1728H27.3913C27.3913 48.9978 29.1747 52.8707 31.9622 53.8187V53.9312C29.8913 54.8582 29.3184 59.5791 32.0726 61.2749V61.3874C29.0643 62.3895 27.083 64.3207 27.083 67.6562C27.083 73.4041 32.458 74.9999 37.1643 74.9999C42.8955 74.9999 47.158 72.9124 47.158 66.5166C47.158 58.6478 36.0309 61.5499 36.0309 57.2749C36.0309 55.7687 36.8247 55.1874 38.1997 54.8978C44.2851 53.7541 46.7684 47.6749 45.1955 43.3812C45.933 43.2145 46.6497 43.0124 47.3643 42.7666V37.1312ZM37.0538 64.4562V64.4541C38.9268 64.4541 41.5934 64.7895 41.5934 67.2437C41.5934 69.677 39.4455 70.1791 37.4393 70.1791C35.533 70.1791 32.6684 69.877 32.6684 67.3666C32.6788 64.8812 35.1018 64.4562 37.0538 64.4562ZM36.7018 50.0041V50.002C34.2788 50.002 33.2538 48.552 33.2538 46.2312C33.2538 40.7291 39.9747 40.7853 39.9747 46.177C39.9726 48.4416 39.0913 50.0041 36.7018 50.0041Z" fill="white"/>
<path d="M72.9163 60.9937V55.5249C72.035 56.1395 70.7683 56.452 69.6892 56.452C67.6517 56.452 67.2871 54.4416 67.2871 52.7895V42.6228C70.7808 42.6228 72.9079 42.7353 72.9079 42.7353V37.4312H67.2871C67.2871 35.902 67.2309 34.3749 67.4517 32.8333H61.2038C61.4017 33.9708 61.3684 34.9437 61.3684 37.4312H58.7246V42.7333C60.5642 42.4437 60.5975 42.6208 61.3684 42.6208V42.7333H61.3142V52.5208C61.3142 57.3749 62.0079 62.0853 67.9017 62.0853C69.5558 62.0874 71.4517 61.8083 72.9163 60.9937Z" fill="white"/>
<path d="M53.1081 25C50.906 25 49.3081 26.9396 49.3081 29.0958C49.3081 31.2167 50.9269 33.1375 53.1081 33.1375C55.2331 33.1375 56.831 31.1854 56.831 29.0958C56.831 27.0104 55.2873 25 53.1081 25V25Z" fill="white"/>
<path d="M50.0332 37.4104C50.2311 39.0604 50.2103 59.7 50.0332 61.7187H56.1499C55.9728 59.7125 55.9519 39.0396 56.1499 37.4104H50.0332Z" fill="white"/>
<defs>
<clipPath id="clip0">
<rect width="50" height="50" fill="white" transform="translate(25 25)"/>
</clipPath>
</defs>
</svg>
