<svg width="100" height="100" viewBox="0 0 100 100" fill="none" xmlns="http://www.w3.org/2000/svg">
<circle cx="50" cy="50" r="50" fill="#222222"/>
<path d="M62.952 47.7514C62.2423 45.7335 59.3321 45.7335 58.7644 47.4035C58.1967 49.0735 60.113 50.0476 63.0941 51.0219C66.0751 51.9962 67.9205 54.5709 67.5656 56.8671C67.2107 59.1632 66.217 62.1555 60.326 62.1555C56.6441 62.1555 54.598 59.8994 53.5811 58.2074L56.9191 56.2408C56.9191 56.2408 58.0547 58.6067 60.184 58.6067C62.3133 58.6067 63.165 57.9109 63.165 56.3104C63.165 54.3621 56.2802 53.6663 55.2155 50.3261C54.1509 46.986 55.5705 42.2543 60.5388 42.6021C63.6441 42.8196 65.3907 44.3145 66.2641 45.4051L62.952 47.7514Z" fill="#F2F2F2"/>
<path d="M47.4792 42.9497C47.4792 42.9497 47.4792 54.7096 47.4792 56.3101C47.4792 57.9104 46.0597 58.7456 44.6401 58.4672C43.2206 58.1889 42.5818 56.5188 42.5818 56.5188L39.3169 58.676C39.3169 58.676 40.0266 61.8769 44.4982 62.1553C48.9697 62.4336 51.5248 59.7894 51.5248 57.5626C51.5248 55.3358 51.5248 42.9497 51.5248 42.9497H47.4792Z" fill="#F2F2F2"/>
<path d="M31.3677 29.4155V67.5777C32.4241 68.6268 33.5752 69.5828 34.8076 70.4359H64.192C65.1766 69.7543 66.1091 69.0063 66.9845 68.1972H33.6512V31.6543H70.9239V63.5635C71.8231 62.2022 72.5902 60.7492 73.2085 59.2227V29.4155H31.3677Z" fill="#F2F2F2"/>
<path d="M32.7512 62.0859C34.9855 62.0859 36.7968 60.3102 36.7968 58.1196C36.7968 55.9291 34.9855 54.1533 32.7512 54.1533C30.5169 54.1533 28.7056 55.9291 28.7056 58.1196C28.7056 60.3102 30.5169 62.0859 32.7512 62.0859Z" fill="#3F4A43"/>
</svg>
