<svg width="100" height="100" viewBox="0 0 100 100" fill="none" xmlns="http://www.w3.org/2000/svg">
<circle cx="50" cy="50" r="50" fill="#222222"/>
<path d="M49.7522 29.1526C47.4419 30.5825 44.8234 32.2033 43.4204 34.8847C40.9836 39.5625 48.407 44.6653 48.7242 44.8803C48.798 44.9303 48.8862 44.9552 48.9742 44.9552C49.0676 44.9552 49.1612 44.927 49.2373 44.8711C49.3847 44.7626 49.4265 44.5784 49.338 44.4283C49.3111 44.3827 46.6465 39.8281 46.7455 36.5604C46.7806 35.4225 48.5904 34.1315 50.5065 32.7646C52.2614 31.5127 54.2506 30.0938 55.4145 28.4339C57.9696 24.7802 55.1298 21.1875 55.1007 21.1517C54.988 21.0123 54.7798 20.9617 54.6017 21.0305C54.4239 21.0995 54.3253 21.2688 54.366 21.436C54.3717 21.4597 54.924 23.8355 53.3873 26.2832C52.754 27.2946 51.363 28.1557 49.7522 29.1526Z" fill="white"/>
<path d="M59.4857 30.764C59.6486 30.656 59.6965 30.4589 59.5978 30.3017C59.4991 30.1444 59.2842 30.075 59.0934 30.1388C58.7009 30.2701 49.4824 33.397 49.4824 37.1753C49.4824 39.7797 50.7467 41.1556 51.6698 42.1604C52.0319 42.5544 52.3445 42.8947 52.4475 43.1853C52.7375 44.0226 52.0504 45.5359 51.7616 46.0483C51.6783 46.1957 51.7191 46.3742 51.8608 46.4818C51.9373 46.5399 52.0329 46.5694 52.1286 46.5694C52.2101 46.5694 52.2919 46.548 52.3626 46.5047C52.5211 46.4076 56.2363 44.0961 55.5699 41.3112C55.3217 40.2527 54.7306 39.4792 54.209 38.7967C53.4009 37.7394 52.8173 36.9755 53.7027 35.5648C54.7404 33.9196 59.4383 30.7953 59.4857 30.764Z" fill="white"/>
<path d="M35.49 46.6293C35.332 47.0454 35.4066 47.4588 35.7056 47.8242C36.7049 49.0449 40.2446 49.7173 45.6731 49.7173C45.6734 49.7173 45.6736 49.7173 45.6738 49.7173C46.4093 49.7173 47.1859 49.7046 47.9813 49.6795C56.6604 49.406 59.8796 47.0267 60.0124 46.9256C60.1571 46.8153 60.1958 46.6317 60.1058 46.4831C60.0158 46.3347 59.8217 46.2601 59.6363 46.3049C56.5798 47.0394 50.8719 47.3001 46.9129 47.3001C42.4829 47.3001 40.2269 47.0193 39.6746 46.812C39.958 46.4696 41.7061 45.858 43.8721 45.4831C44.0792 45.4473 44.2215 45.2791 44.201 45.0943C44.1805 44.9095 44.0041 44.7686 43.7931 44.7686C42.5233 44.7687 36.1556 44.8584 35.49 46.6293Z" fill="white"/>
<path d="M64.5326 44.1787C62.7425 44.1787 61.0449 44.9681 60.9734 45.0017C60.8079 45.0798 60.7239 45.2468 60.7693 45.4072C60.8149 45.5675 60.9787 45.6802 61.1666 45.6803C61.2046 45.6805 64.9851 45.7076 65.3275 47.6084C65.6308 49.2482 61.7505 51.9052 60.2297 52.7907C60.0654 52.8863 60.0016 53.0713 60.0779 53.231C60.1426 53.367 60.2933 53.4521 60.4556 53.4521C60.4839 53.4521 60.5126 53.4495 60.5412 53.444C60.9021 53.3762 69.3698 51.7343 68.4746 47.3956C67.9283 44.7367 66.0293 44.1787 64.5326 44.1787Z" fill="white"/>
<path d="M58.7251 52.26C58.7546 52.1209 58.6889 51.9795 58.5574 51.8985L56.5271 50.647C56.4281 50.586 56.303 50.5668 56.1868 50.5939C56.1656 50.5988 54.0423 51.0899 50.9597 51.3911C49.7363 51.5118 48.366 51.5756 46.9966 51.5756C43.9148 51.5756 41.8998 51.2569 41.6063 51.0232C41.5675 50.9576 41.5798 50.9277 41.5866 50.9111C41.6399 50.7806 41.9257 50.6255 42.1099 50.5642C42.3134 50.498 42.423 50.3035 42.3598 50.1209C42.2966 49.9382 42.0827 49.8306 41.8716 49.8753C39.8348 50.3078 38.8389 50.9127 38.9114 51.673C39.0401 53.0208 42.5881 53.7127 45.5876 53.8958C46.0189 53.9217 46.4855 53.935 46.9738 53.935C46.9742 53.935 46.9743 53.935 46.9747 53.935C51.9623 53.935 58.3564 52.5579 58.4204 52.5439C58.5764 52.51 58.6954 52.3991 58.7251 52.26Z" fill="white"/>
<path d="M43.4176 55.1531C43.5714 55.065 43.6396 54.8978 43.585 54.7437C43.5306 54.5896 43.3668 54.4885 43.1829 54.4905C42.9099 54.4969 40.512 54.5921 40.3442 55.9356C40.2934 56.3371 40.424 56.7038 40.7327 57.0256C41.5937 57.9235 43.9176 58.4571 47.8363 58.6572C48.2999 58.6816 48.7707 58.6939 49.2361 58.6939C54.2181 58.6939 57.5733 57.3212 57.7138 57.2628C57.85 57.2061 57.9399 57.0884 57.9479 56.9559C57.9559 56.8237 57.8808 56.698 57.7523 56.6289L55.1864 55.2505C55.0974 55.2027 54.9909 55.1869 54.8892 55.2052C54.873 55.2082 53.2438 55.5055 50.7851 55.7994C50.3199 55.8549 49.7373 55.8832 49.0537 55.8832C46.5976 55.8832 43.8658 55.5301 43.3419 55.299C43.3343 55.2555 43.344 55.2007 43.4176 55.1531Z" fill="white"/>
<path d="M46.9147 62.8382C58.3261 62.8297 64.4509 61.0439 65.6307 59.9201C66.0484 59.5223 66.0935 59.146 66.0579 58.9001C65.9702 58.2951 65.3442 57.9248 65.273 57.8846C65.1017 57.7876 64.8719 57.813 64.7383 57.9486C64.605 58.0844 64.6019 58.2824 64.7356 58.4179C64.8076 58.4994 64.8492 58.6357 64.6387 58.8211C64.1671 59.2087 59.4097 60.3855 51.4888 60.7389C50.4037 60.7887 49.2657 60.8138 48.1063 60.8139C41.0142 60.8139 35.8239 59.9592 35.1426 59.4609C35.4054 59.1289 37.2411 58.5984 39.1936 58.2984C39.4136 58.2647 39.5623 58.0822 39.5282 57.888C39.4941 57.6938 39.2906 57.5601 39.0683 57.5856C39.0133 57.5921 38.8265 57.6022 38.61 57.6138C35.3885 57.7869 31.6657 58.1728 31.4715 59.6333C31.4125 60.0785 31.5628 60.4824 31.9184 60.8341C32.7884 61.6943 35.2892 62.838 46.9142 62.838C46.9145 62.8382 46.9145 62.8382 46.9147 62.8382Z" fill="white"/>
<path d="M67.8726 60.2367C67.7113 60.1711 67.5208 60.2043 67.4003 60.3185C67.3834 60.3344 65.6678 61.9132 60.5093 62.8402C58.5344 63.1885 54.8274 63.3651 49.4912 63.3651C44.145 63.3651 39.0579 63.18 39.0071 63.1781C38.7947 63.169 38.6129 63.3049 38.584 63.489C38.555 63.6731 38.6897 63.8463 38.895 63.8893C38.9479 63.9004 44.2792 64.9996 51.5687 64.9996C55.0649 64.9996 58.467 64.7495 61.6808 64.2565C67.6731 63.332 68.0926 60.7173 68.1075 60.6065C68.1283 60.4516 68.0336 60.3024 67.8726 60.2367Z" fill="white"/>
</svg>
