<svg width="50" height="50" viewBox="0 0 50 50" fill="none" xmlns="http://www.w3.org/2000/svg">
<g clip-path="url(#clip0)">
<path d="M25 0.00012207C11.195 0.00012207 0 11.1951 0 25.0001C0 38.8051 11.195 50.0001 25 50.0001C38.805 50.0001 50 38.8051 50 25.0001C50 11.1951 38.805 0.00012207 25 0.00012207ZM17.7353 37.7931H11.6467V19.4753H17.7353V37.7931ZM14.6912 16.974H14.6515C12.6083 16.974 11.2869 15.5675 11.2869 13.8097C11.2869 12.0122 12.6488 10.6447 14.7316 10.6447C16.8144 10.6447 18.0962 12.0122 18.1358 13.8097C18.1358 15.5675 16.8144 16.974 14.6912 16.974ZM39.6896 37.7931H33.6018V27.9935C33.6018 25.5307 32.7202 23.8511 30.5172 23.8511C28.8353 23.8511 27.8336 24.9841 27.3933 26.0778C27.2324 26.4692 27.1931 27.0162 27.1931 27.5636V37.7931H21.1048C21.1048 37.7931 21.1845 21.1938 21.1048 19.4753H27.1931V22.0689C28.0022 20.8207 29.4498 19.0454 32.6801 19.0454C36.6859 19.0454 39.6896 21.6634 39.6896 27.2897V37.7931Z" fill="white"/>
</g>
<defs>
<clipPath id="clip0">
<rect width="50" height="50" fill="white" transform="translate(0 0.00012207)"/>
</clipPath>
</defs>
</svg>
