<svg  viewBox="0 0 919 1023" xmlns="http://www.w3.org/2000/svg">
<g id="MainSvg">
<g id="Vector1" filter="url(#filter0_ii)">
<path d="M151 102.5C-11 100.1 -10.5 35.8333 10 4V-35H934.5V332C916.833 337.833 885.2 365.1 900 427.5C918.5 505.5 894 529 847 579C800 629 841 677 862.5 733.5C884 790 830 869 734.5 858.5C658.1 850.1 634 891.333 631.5 913C614.833 929.167 566.9 958.7 508.5 947.5C435.5 933.5 522.5 769.5 314.5 717.5C106.5 665.5 222.5 538 283.5 511.5C344.5 485 369.5 394.5 283.5 349.5C214.7 313.5 261.167 249.167 295 222C335.5 189.48 313 104.9 151 102.5Z" fill="#242F5E"/>
</g>
<g id="Vector2" filter="url(#filter1_ii)">
<path d="M188.604 88C45.4992 85.7145 62.8269 13.3152 80.9358 -17L80.9358 -7H949.604V333L897.604 342.498C881.998 348.053 854.054 374.019 867.128 433.443C883.47 507.723 861.828 530.103 820.31 577.718C778.792 625.333 815.009 671.044 834.002 724.85C852.994 778.655 805.292 853.888 720.931 843.888C653.443 835.889 632.154 875.156 629.945 895.789C615.222 911.185 572.88 939.31 521.292 928.644C456.806 915.312 533.659 759.133 349.919 709.613C166.18 660.093 268.65 538.673 322.535 513.437C376.42 488.201 398.504 402.017 322.535 359.163C261.76 324.88 302.807 263.615 332.694 237.744C368.47 206.775 331.708 90.2855 188.604 88Z" fill="#374485"/>
</g>
<g id="Vector3" filter="url(#filter2_ii)">
<path d="M264.828 91.8797C145.385 89.5315 159.848 15.1466 174.962 -16L174.962 -5.72574L987 -11V161L992 343C951.943 341.117 877 343 856.598 353.357C836.196 363.714 820.249 385.743 831.161 446.797C844.801 523.114 826.737 546.107 792.084 595.029C757.431 643.95 787.66 690.915 803.512 746.196C819.364 801.477 775.412 855.273 705 845C648.67 836.781 635.039 900.624 633.195 921.824C620.907 937.642 585.566 966.538 542.507 955.579C488.684 941.881 581.359 760.878 428 710C274.641 659.122 340.118 555.928 385.093 530C430.069 504.072 440.022 414.509 376.614 370.48C325.888 335.256 360.148 272.311 385.093 245.73C414.954 213.912 384.271 94.228 264.828 91.8797Z" fill="#F3686D"/>
</g>
<g id="Particles">
<circle id="particle1" cx="673" cy="739" r="5" fill="#D95A5D"/>
<circle id="particle2" cx="533.5" cy="776.5" r="7.5" fill="#EA6467"/>
<circle id="particle2_2" cx="646.5" cy="113.5" r="7.5" fill="#EA6467"/>
<circle id="particle2_3" cx="562.5" cy="644.5" r="7.5" fill="#EA6467"/>
<circle id="particle2_4" cx="670.5" cy="644.5" r="7.5" fill="#EA6467"/>
<circle id="particle2_5" cx="475.5" cy="367.5" r="7.5" fill="#EA6467"/>
<circle id="particle2_6" cx="687.5" cy="262.5" r="7.5" fill="#EA6467"/>
<circle id="particle2_7" cx="598.5" cy="864.5" r="7.5" fill="#EA6467"/>
<circle id="particle1_2" cx="494" cy="579" r="5" fill="#D95A5D"/>
<circle id="particle1_3" cx="764" cy="434" r="5" fill="#D95A5D"/>
<circle id="particle1_4" cx="555" cy="267" r="5" fill="#D95A5D"/>
<circle id="particle1_5" cx="584" cy="452" r="5" fill="#D95A5D"/>
<circle id="particle1_6" cx="847" cy="194" r="5" fill="#D95A5D"/>
<circle id="particle1_7" cx="449" cy="108" r="5" fill="#D95A5D"/>
<path id="&#60;/react&#62;" d="M574.816 219.952C574.688 219.952 574.544 219.912 574.384 219.832L566.848 214.84C566.736 214.776 566.648 214.688 566.584 214.576C566.536 214.448 566.512 214.32 566.512 214.192C566.512 214.08 566.544 213.968 566.608 213.856C566.672 213.728 566.76 213.632 566.872 213.568L574.864 208.456C574.992 208.376 575.128 208.336 575.272 208.336C575.464 208.336 575.632 208.416 575.776 208.576C575.936 208.72 576.016 208.896 576.016 209.104C576.016 209.216 575.984 209.336 575.92 209.464C575.856 209.576 575.768 209.664 575.656 209.728L568.648 214.216L575.224 218.56C575.336 218.624 575.416 218.72 575.464 218.848C575.528 218.96 575.56 219.08 575.56 219.208C575.56 219.4 575.488 219.576 575.344 219.736C575.2 219.88 575.024 219.952 574.816 219.952ZM578.674 222.928C578.482 222.928 578.322 222.864 578.194 222.736C578.066 222.608 578.002 222.456 578.002 222.28C578.002 222.152 578.026 222.024 578.074 221.896L585.682 203.872C585.794 203.648 586.002 203.536 586.306 203.536C586.482 203.536 586.634 203.608 586.762 203.752C586.906 203.88 586.978 204.016 586.978 204.16C586.978 204.288 586.946 204.416 586.882 204.544C586.818 204.672 586.778 204.744 586.762 204.76L579.25 222.592C579.218 222.704 579.146 222.784 579.034 222.832C578.938 222.896 578.818 222.928 578.674 222.928ZM590.351 220.144C590.159 220.144 589.983 220.072 589.823 219.928C589.663 219.784 589.583 219.624 589.583 219.448V208.888C589.583 208.68 589.655 208.512 589.799 208.384C589.959 208.24 590.143 208.168 590.351 208.168C590.575 208.168 590.759 208.24 590.903 208.384C591.047 208.512 591.119 208.68 591.119 208.888V210.928C591.567 210.144 592.119 209.48 592.775 208.936C593.447 208.376 594.231 208.096 595.127 208.096C595.831 208.096 596.335 208.296 596.639 208.696C596.959 209.08 597.119 209.544 597.119 210.088V210.856C597.119 211.064 597.047 211.24 596.903 211.384C596.759 211.512 596.583 211.576 596.375 211.576C596.135 211.576 595.959 211.504 595.847 211.36C595.735 211.216 595.679 211.04 595.679 210.832V210.28C595.679 209.816 595.407 209.584 594.863 209.584C593.919 209.584 592.943 210.256 591.935 211.6C591.695 211.92 591.495 212.32 591.335 212.8C591.191 213.28 591.119 213.728 591.119 214.144L591.095 219.448C591.095 219.624 591.015 219.784 590.855 219.928C590.711 220.072 590.543 220.144 590.351 220.144ZM603.885 220.144C602.717 220.144 601.677 219.888 600.765 219.376C599.853 218.848 599.149 218.144 598.653 217.264C598.157 216.384 597.909 215.424 597.909 214.384C597.909 213.296 598.133 212.28 598.581 211.336C599.045 210.376 599.685 209.608 600.501 209.032C601.317 208.456 602.253 208.168 603.309 208.168C604.269 208.168 605.085 208.352 605.757 208.72C606.445 209.088 606.957 209.528 607.293 210.04C607.645 210.552 607.821 211.008 607.821 211.408C607.821 211.696 607.629 211.952 607.245 212.176L599.805 216.424C600.205 217.192 600.749 217.776 601.437 218.176C602.125 218.56 602.933 218.752 603.861 218.752C604.373 218.752 604.909 218.624 605.469 218.368C606.045 218.112 606.501 217.808 606.837 217.456C606.949 217.296 607.109 217.216 607.317 217.216C607.525 217.216 607.693 217.288 607.821 217.432C607.965 217.56 608.037 217.728 608.037 217.936C608.037 218.096 607.973 218.256 607.845 218.416C607.413 218.912 606.821 219.328 606.069 219.664C605.333 219.984 604.605 220.144 603.885 220.144ZM606.333 211.216C606.109 210.672 605.757 210.264 605.277 209.992C604.797 209.72 604.149 209.584 603.333 209.584C602.565 209.584 601.877 209.8 601.269 210.232C600.661 210.648 600.181 211.216 599.829 211.936C599.493 212.656 599.317 213.448 599.301 214.312C599.301 214.632 599.317 214.888 599.349 215.08L606.333 211.216ZM618.596 220.336C618.356 220.336 618.172 220.256 618.044 220.096C617.916 219.952 617.852 219.768 617.852 219.544V218.872C617.42 219.256 616.9 219.568 616.292 219.808C615.684 220.032 615.076 220.144 614.468 220.144C613.604 220.144 612.828 219.928 612.14 219.496C611.452 219.064 610.908 218.456 610.508 217.672C610.124 216.872 609.932 215.968 609.932 214.96C609.932 213.872 610.156 212.808 610.604 211.768C611.068 210.712 611.732 209.848 612.596 209.176C613.476 208.504 614.508 208.168 615.692 208.168C616.428 208.168 617.076 208.264 617.636 208.456C618.196 208.648 618.764 208.88 619.34 209.152V219.544C619.34 219.768 619.268 219.952 619.124 220.096C618.98 220.256 618.804 220.336 618.596 220.336ZM614.468 218.728C615.092 218.728 615.716 218.584 616.34 218.296C616.964 217.992 617.444 217.672 617.78 217.336L617.876 210.064C617.62 209.952 617.284 209.848 616.868 209.752C616.468 209.64 616.092 209.584 615.74 209.584C614.956 209.584 614.236 209.816 613.58 210.28C612.924 210.744 612.404 211.384 612.02 212.2C611.652 213 611.468 213.904 611.468 214.912C611.468 216.08 611.748 217.008 612.308 217.696C612.868 218.384 613.588 218.728 614.468 218.728ZM627.539 220.144C626.611 220.144 625.739 219.92 624.923 219.472C624.123 219.008 623.483 218.376 623.003 217.576C622.539 216.776 622.307 215.896 622.307 214.936C622.307 213.848 622.555 212.784 623.051 211.744C623.563 210.688 624.235 209.832 625.067 209.176C625.899 208.504 626.763 208.168 627.659 208.168C628.491 208.168 629.171 208.304 629.699 208.576C630.243 208.848 630.763 209.272 631.259 209.848C631.387 209.976 631.451 210.144 631.451 210.352C631.451 210.56 631.379 210.736 631.235 210.88C631.107 211.024 630.939 211.096 630.731 211.096C630.507 211.096 630.323 211.008 630.179 210.832C629.827 210.416 629.467 210.104 629.099 209.896C628.731 209.672 628.267 209.56 627.707 209.56C627.067 209.56 626.443 209.816 625.835 210.328C625.227 210.84 624.731 211.512 624.347 212.344C623.963 213.16 623.771 214.008 623.771 214.888C623.771 215.688 623.955 216.384 624.323 216.976C624.707 217.552 625.187 217.992 625.763 218.296C626.355 218.6 626.947 218.752 627.539 218.752C628.915 218.752 629.987 218.2 630.755 217.096C630.963 216.808 631.187 216.664 631.427 216.664C631.635 216.664 631.811 216.736 631.955 216.88C632.099 217.024 632.171 217.192 632.171 217.384C632.171 217.544 632.091 217.728 631.931 217.936C631.515 218.544 630.915 219.064 630.131 219.496C629.347 219.928 628.483 220.144 627.539 220.144ZM636.021 220.168C635.813 220.168 635.629 220.096 635.469 219.952C635.325 219.808 635.253 219.64 635.253 219.448V209.656H632.589C632.381 209.656 632.205 209.584 632.061 209.44C631.917 209.28 631.845 209.096 631.845 208.888C631.845 208.664 631.925 208.488 632.085 208.36C632.245 208.216 632.429 208.144 632.637 208.144H635.253V204.856C635.253 204.648 635.325 204.472 635.469 204.328C635.629 204.168 635.813 204.088 636.021 204.088C636.245 204.088 636.421 204.168 636.549 204.328C636.693 204.472 636.765 204.648 636.765 204.856V208.144H639.453C639.677 208.144 639.861 208.216 640.005 208.36C640.149 208.504 640.221 208.68 640.221 208.888C640.221 209.096 640.141 209.28 639.981 209.44C639.837 209.584 639.661 209.656 639.453 209.656H636.765V219.448C636.765 219.64 636.685 219.808 636.525 219.952C636.381 220.096 636.213 220.168 636.021 220.168ZM642.6 219.952C642.408 219.952 642.232 219.88 642.072 219.736C641.928 219.576 641.856 219.4 641.856 219.208C641.856 218.936 641.976 218.72 642.216 218.56L648.768 214.216L641.76 209.728C641.648 209.664 641.56 209.576 641.496 209.464C641.432 209.352 641.4 209.232 641.4 209.104C641.4 208.896 641.472 208.72 641.616 208.576C641.776 208.416 641.96 208.336 642.168 208.336C642.28 208.336 642.416 208.376 642.576 208.456L650.544 213.568C650.656 213.632 650.744 213.728 650.808 213.856C650.872 213.968 650.904 214.08 650.904 214.192C650.904 214.496 650.792 214.712 650.568 214.84L643.032 219.832C642.904 219.912 642.76 219.952 642.6 219.952Z" fill="#D35252"/>
<path id="&#60;/reactNative&#62;" d="M321.816 66.952C321.688 66.952 321.544 66.912 321.384 66.832L313.848 61.84C313.736 61.776 313.648 61.688 313.584 61.576C313.536 61.448 313.512 61.32 313.512 61.192C313.512 61.08 313.544 60.968 313.608 60.856C313.672 60.728 313.76 60.632 313.872 60.568L321.864 55.456C321.992 55.376 322.128 55.336 322.272 55.336C322.464 55.336 322.632 55.416 322.776 55.576C322.936 55.72 323.016 55.896 323.016 56.104C323.016 56.216 322.984 56.336 322.92 56.464C322.856 56.576 322.768 56.664 322.656 56.728L315.648 61.216L322.224 65.56C322.336 65.624 322.416 65.72 322.464 65.848C322.528 65.96 322.56 66.08 322.56 66.208C322.56 66.4 322.488 66.576 322.344 66.736C322.2 66.88 322.024 66.952 321.816 66.952ZM325.674 69.928C325.482 69.928 325.322 69.864 325.194 69.736C325.066 69.608 325.002 69.456 325.002 69.28C325.002 69.152 325.026 69.024 325.074 68.896L332.682 50.872C332.794 50.648 333.002 50.536 333.306 50.536C333.482 50.536 333.634 50.608 333.762 50.752C333.906 50.88 333.978 51.016 333.978 51.16C333.978 51.288 333.946 51.416 333.882 51.544C333.818 51.672 333.778 51.744 333.762 51.76L326.25 69.592C326.218 69.704 326.146 69.784 326.034 69.832C325.938 69.896 325.818 69.928 325.674 69.928ZM337.351 67.144C337.159 67.144 336.983 67.072 336.823 66.928C336.663 66.784 336.583 66.624 336.583 66.448V55.888C336.583 55.68 336.655 55.512 336.799 55.384C336.959 55.24 337.143 55.168 337.351 55.168C337.575 55.168 337.759 55.24 337.903 55.384C338.047 55.512 338.119 55.68 338.119 55.888V57.928C338.567 57.144 339.119 56.48 339.775 55.936C340.447 55.376 341.231 55.096 342.127 55.096C342.831 55.096 343.335 55.296 343.639 55.696C343.959 56.08 344.119 56.544 344.119 57.088V57.856C344.119 58.064 344.047 58.24 343.903 58.384C343.759 58.512 343.583 58.576 343.375 58.576C343.135 58.576 342.959 58.504 342.847 58.36C342.735 58.216 342.679 58.04 342.679 57.832V57.28C342.679 56.816 342.407 56.584 341.863 56.584C340.919 56.584 339.943 57.256 338.935 58.6C338.695 58.92 338.495 59.32 338.335 59.8C338.191 60.28 338.119 60.728 338.119 61.144L338.095 66.448C338.095 66.624 338.015 66.784 337.855 66.928C337.711 67.072 337.543 67.144 337.351 67.144ZM350.885 67.144C349.717 67.144 348.677 66.888 347.765 66.376C346.853 65.848 346.149 65.144 345.653 64.264C345.157 63.384 344.909 62.424 344.909 61.384C344.909 60.296 345.133 59.28 345.581 58.336C346.045 57.376 346.685 56.608 347.501 56.032C348.317 55.456 349.253 55.168 350.309 55.168C351.269 55.168 352.085 55.352 352.757 55.72C353.445 56.088 353.957 56.528 354.293 57.04C354.645 57.552 354.821 58.008 354.821 58.408C354.821 58.696 354.629 58.952 354.245 59.176L346.805 63.424C347.205 64.192 347.749 64.776 348.437 65.176C349.125 65.56 349.933 65.752 350.861 65.752C351.373 65.752 351.909 65.624 352.469 65.368C353.045 65.112 353.501 64.808 353.837 64.456C353.949 64.296 354.109 64.216 354.317 64.216C354.525 64.216 354.693 64.288 354.821 64.432C354.965 64.56 355.037 64.728 355.037 64.936C355.037 65.096 354.973 65.256 354.845 65.416C354.413 65.912 353.821 66.328 353.069 66.664C352.333 66.984 351.605 67.144 350.885 67.144ZM353.333 58.216C353.109 57.672 352.757 57.264 352.277 56.992C351.797 56.72 351.149 56.584 350.333 56.584C349.565 56.584 348.877 56.8 348.269 57.232C347.661 57.648 347.181 58.216 346.829 58.936C346.493 59.656 346.317 60.448 346.301 61.312C346.301 61.632 346.317 61.888 346.349 62.08L353.333 58.216ZM365.596 67.336C365.356 67.336 365.172 67.256 365.044 67.096C364.916 66.952 364.852 66.768 364.852 66.544V65.872C364.42 66.256 363.9 66.568 363.292 66.808C362.684 67.032 362.076 67.144 361.468 67.144C360.604 67.144 359.828 66.928 359.14 66.496C358.452 66.064 357.908 65.456 357.508 64.672C357.124 63.872 356.932 62.968 356.932 61.96C356.932 60.872 357.156 59.808 357.604 58.768C358.068 57.712 358.732 56.848 359.596 56.176C360.476 55.504 361.508 55.168 362.692 55.168C363.428 55.168 364.076 55.264 364.636 55.456C365.196 55.648 365.764 55.88 366.34 56.152V66.544C366.34 66.768 366.268 66.952 366.124 67.096C365.98 67.256 365.804 67.336 365.596 67.336ZM361.468 65.728C362.092 65.728 362.716 65.584 363.34 65.296C363.964 64.992 364.444 64.672 364.78 64.336L364.876 57.064C364.62 56.952 364.284 56.848 363.868 56.752C363.468 56.64 363.092 56.584 362.74 56.584C361.956 56.584 361.236 56.816 360.58 57.28C359.924 57.744 359.404 58.384 359.02 59.2C358.652 60 358.468 60.904 358.468 61.912C358.468 63.08 358.748 64.008 359.308 64.696C359.868 65.384 360.588 65.728 361.468 65.728ZM374.539 67.144C373.611 67.144 372.739 66.92 371.923 66.472C371.123 66.008 370.483 65.376 370.003 64.576C369.539 63.776 369.307 62.896 369.307 61.936C369.307 60.848 369.555 59.784 370.051 58.744C370.563 57.688 371.235 56.832 372.067 56.176C372.899 55.504 373.763 55.168 374.659 55.168C375.491 55.168 376.171 55.304 376.699 55.576C377.243 55.848 377.763 56.272 378.259 56.848C378.387 56.976 378.451 57.144 378.451 57.352C378.451 57.56 378.379 57.736 378.235 57.88C378.107 58.024 377.939 58.096 377.731 58.096C377.507 58.096 377.323 58.008 377.179 57.832C376.827 57.416 376.467 57.104 376.099 56.896C375.731 56.672 375.267 56.56 374.707 56.56C374.067 56.56 373.443 56.816 372.835 57.328C372.227 57.84 371.731 58.512 371.347 59.344C370.963 60.16 370.771 61.008 370.771 61.888C370.771 62.688 370.955 63.384 371.323 63.976C371.707 64.552 372.187 64.992 372.763 65.296C373.355 65.6 373.947 65.752 374.539 65.752C375.915 65.752 376.987 65.2 377.755 64.096C377.963 63.808 378.187 63.664 378.427 63.664C378.635 63.664 378.811 63.736 378.955 63.88C379.099 64.024 379.171 64.192 379.171 64.384C379.171 64.544 379.091 64.728 378.931 64.936C378.515 65.544 377.915 66.064 377.131 66.496C376.347 66.928 375.483 67.144 374.539 67.144ZM383.021 67.168C382.813 67.168 382.629 67.096 382.469 66.952C382.325 66.808 382.253 66.64 382.253 66.448V56.656H379.589C379.381 56.656 379.205 56.584 379.061 56.44C378.917 56.28 378.845 56.096 378.845 55.888C378.845 55.664 378.925 55.488 379.085 55.36C379.245 55.216 379.429 55.144 379.637 55.144H382.253V51.856C382.253 51.648 382.325 51.472 382.469 51.328C382.629 51.168 382.813 51.088 383.021 51.088C383.245 51.088 383.421 51.168 383.549 51.328C383.693 51.472 383.765 51.648 383.765 51.856V55.144H386.453C386.677 55.144 386.861 55.216 387.005 55.36C387.149 55.504 387.221 55.68 387.221 55.888C387.221 56.096 387.141 56.28 386.981 56.44C386.837 56.584 386.661 56.656 386.453 56.656H383.765V66.448C383.765 66.64 383.685 66.808 383.525 66.952C383.381 67.096 383.213 67.168 383.021 67.168ZM389.408 67.144C389.2 67.144 389.016 67.072 388.856 66.928C388.712 66.768 388.64 66.584 388.64 66.376L388.664 51.544C388.664 51.352 388.736 51.184 388.88 51.04C389.024 50.88 389.2 50.8 389.408 50.8C389.664 50.8 389.88 50.904 390.056 51.112L398.912 63.976V51.544C398.912 51.336 398.984 51.16 399.128 51.016C399.288 50.856 399.472 50.776 399.68 50.776C399.888 50.776 400.064 50.856 400.208 51.016C400.368 51.16 400.448 51.336 400.448 51.544V66.376C400.448 66.584 400.376 66.768 400.232 66.928C400.088 67.072 399.904 67.144 399.68 67.144C399.584 67.144 399.472 67.112 399.344 67.048C399.216 66.984 399.12 66.904 399.056 66.808L390.2 53.992L390.176 66.376C390.176 66.584 390.096 66.768 389.936 66.928C389.792 67.072 389.616 67.144 389.408 67.144ZM412.213 67.336C411.973 67.336 411.789 67.256 411.661 67.096C411.533 66.952 411.469 66.768 411.469 66.544V65.872C411.037 66.256 410.517 66.568 409.909 66.808C409.301 67.032 408.693 67.144 408.085 67.144C407.221 67.144 406.445 66.928 405.757 66.496C405.069 66.064 404.525 65.456 404.125 64.672C403.741 63.872 403.549 62.968 403.549 61.96C403.549 60.872 403.773 59.808 404.221 58.768C404.685 57.712 405.349 56.848 406.213 56.176C407.093 55.504 408.125 55.168 409.309 55.168C410.045 55.168 410.693 55.264 411.253 55.456C411.813 55.648 412.381 55.88 412.957 56.152V66.544C412.957 66.768 412.885 66.952 412.741 67.096C412.597 67.256 412.421 67.336 412.213 67.336ZM408.085 65.728C408.709 65.728 409.333 65.584 409.957 65.296C410.581 64.992 411.061 64.672 411.397 64.336L411.493 57.064C411.237 56.952 410.901 56.848 410.485 56.752C410.085 56.64 409.709 56.584 409.357 56.584C408.573 56.584 407.853 56.816 407.197 57.28C406.541 57.744 406.021 58.384 405.637 59.2C405.269 60 405.085 60.904 405.085 61.912C405.085 63.08 405.365 64.008 405.925 64.696C406.485 65.384 407.205 65.728 408.085 65.728ZM418.06 67.168C417.852 67.168 417.668 67.096 417.508 66.952C417.364 66.808 417.292 66.64 417.292 66.448V56.656H414.628C414.42 56.656 414.244 56.584 414.1 56.44C413.956 56.28 413.884 56.096 413.884 55.888C413.884 55.664 413.964 55.488 414.124 55.36C414.284 55.216 414.468 55.144 414.676 55.144H417.292V51.856C417.292 51.648 417.364 51.472 417.508 51.328C417.668 51.168 417.852 51.088 418.06 51.088C418.284 51.088 418.46 51.168 418.588 51.328C418.732 51.472 418.804 51.648 418.804 51.856V55.144H421.492C421.716 55.144 421.9 55.216 422.044 55.36C422.188 55.504 422.26 55.68 422.26 55.888C422.26 56.096 422.18 56.28 422.02 56.44C421.876 56.584 421.7 56.656 421.492 56.656H418.804V66.448C418.804 66.64 418.724 66.808 418.564 66.952C418.42 67.096 418.252 67.168 418.06 67.168ZM424.496 53.272C424.288 53.272 424.112 53.2 423.968 53.056C423.824 52.912 423.752 52.736 423.752 52.528L423.776 51.544C423.776 51.352 423.856 51.184 424.016 51.04C424.176 50.896 424.352 50.824 424.544 50.824C424.736 50.824 424.904 50.904 425.048 51.064C425.192 51.208 425.264 51.376 425.264 51.568L425.24 52.552C425.24 52.76 425.16 52.936 425 53.08C424.856 53.208 424.688 53.272 424.496 53.272ZM424.352 67.144C424.144 67.144 423.96 67.072 423.8 66.928C423.64 66.768 423.56 66.584 423.56 66.376L423.704 55.96C423.704 55.752 423.784 55.568 423.944 55.408C424.104 55.248 424.288 55.168 424.496 55.168C424.704 55.168 424.88 55.248 425.024 55.408C425.184 55.552 425.264 55.736 425.264 55.96L425.12 66.376C425.12 66.584 425.04 66.768 424.88 66.928C424.736 67.072 424.56 67.144 424.352 67.144ZM432.021 67.168C431.701 67.168 431.469 66.992 431.325 66.64L427.053 56.176C427.021 56.048 427.005 55.96 427.005 55.912C427.005 55.704 427.077 55.528 427.221 55.384C427.381 55.24 427.573 55.168 427.797 55.168C428.101 55.168 428.333 55.336 428.493 55.672L432.021 64.576L435.573 55.6C435.637 55.472 435.725 55.368 435.837 55.288C435.965 55.192 436.109 55.144 436.269 55.144C436.477 55.144 436.653 55.224 436.797 55.384C436.957 55.528 437.037 55.696 437.037 55.888C437.037 55.984 437.005 56.096 436.941 56.224L432.717 66.688C432.573 67.008 432.341 67.168 432.021 67.168ZM443.768 67.144C442.6 67.144 441.56 66.888 440.648 66.376C439.736 65.848 439.032 65.144 438.536 64.264C438.04 63.384 437.792 62.424 437.792 61.384C437.792 60.296 438.016 59.28 438.464 58.336C438.928 57.376 439.568 56.608 440.384 56.032C441.2 55.456 442.136 55.168 443.192 55.168C444.152 55.168 444.968 55.352 445.64 55.72C446.328 56.088 446.84 56.528 447.176 57.04C447.528 57.552 447.704 58.008 447.704 58.408C447.704 58.696 447.512 58.952 447.128 59.176L439.688 63.424C440.088 64.192 440.632 64.776 441.32 65.176C442.008 65.56 442.816 65.752 443.743 65.752C444.256 65.752 444.792 65.624 445.352 65.368C445.928 65.112 446.384 64.808 446.72 64.456C446.832 64.296 446.992 64.216 447.2 64.216C447.408 64.216 447.576 64.288 447.704 64.432C447.848 64.56 447.92 64.728 447.92 64.936C447.92 65.096 447.856 65.256 447.728 65.416C447.296 65.912 446.704 66.328 445.952 66.664C445.216 66.984 444.488 67.144 443.768 67.144ZM446.216 58.216C445.992 57.672 445.64 57.264 445.16 56.992C444.68 56.72 444.032 56.584 443.216 56.584C442.448 56.584 441.76 56.8 441.152 57.232C440.544 57.648 440.064 58.216 439.712 58.936C439.376 59.656 439.2 60.448 439.184 61.312C439.184 61.632 439.2 61.888 439.232 62.08L446.216 58.216ZM451.663 66.952C451.471 66.952 451.295 66.88 451.135 66.736C450.991 66.576 450.919 66.4 450.919 66.208C450.919 65.936 451.039 65.72 451.279 65.56L457.831 61.216L450.823 56.728C450.711 56.664 450.623 56.576 450.559 56.464C450.495 56.352 450.463 56.232 450.463 56.104C450.463 55.896 450.535 55.72 450.679 55.576C450.839 55.416 451.023 55.336 451.231 55.336C451.343 55.336 451.479 55.376 451.639 55.456L459.607 60.568C459.719 60.632 459.807 60.728 459.871 60.856C459.935 60.968 459.967 61.08 459.967 61.192C459.967 61.496 459.855 61.712 459.631 61.84L452.095 66.832C451.967 66.912 451.823 66.952 451.663 66.952Z" fill="#D35252"/>
<path id="&#60;/java&#62;" d="M713.816 545.952C713.688 545.952 713.544 545.912 713.384 545.832L705.848 540.84C705.736 540.776 705.648 540.688 705.584 540.576C705.536 540.448 705.512 540.32 705.512 540.192C705.512 540.08 705.544 539.968 705.608 539.856C705.672 539.728 705.76 539.632 705.872 539.568L713.864 534.456C713.992 534.376 714.128 534.336 714.272 534.336C714.464 534.336 714.632 534.416 714.776 534.576C714.936 534.72 715.016 534.896 715.016 535.104C715.016 535.216 714.984 535.336 714.92 535.464C714.856 535.576 714.768 535.664 714.656 535.728L707.648 540.216L714.224 544.56C714.336 544.624 714.416 544.72 714.464 544.848C714.528 544.96 714.56 545.08 714.56 545.208C714.56 545.4 714.488 545.576 714.344 545.736C714.2 545.88 714.024 545.952 713.816 545.952ZM717.674 548.928C717.482 548.928 717.322 548.864 717.194 548.736C717.066 548.608 717.002 548.456 717.002 548.28C717.002 548.152 717.026 548.024 717.074 547.896L724.682 529.872C724.794 529.648 725.002 529.536 725.306 529.536C725.482 529.536 725.634 529.608 725.762 529.752C725.906 529.88 725.978 530.016 725.978 530.16C725.978 530.288 725.946 530.416 725.882 530.544C725.818 530.672 725.778 530.744 725.762 530.76L718.25 548.592C718.218 548.704 718.146 548.784 718.034 548.832C717.938 548.896 717.818 548.928 717.674 548.928ZM729.687 532.176C729.479 532.176 729.303 532.104 729.159 531.96C729.015 531.8 728.959 531.632 728.991 531.456L729.087 530.304C729.103 530.128 729.183 529.984 729.327 529.872C729.487 529.76 729.663 529.704 729.855 529.704C730.079 529.704 730.263 529.8 730.407 529.992C730.551 530.168 730.607 530.36 730.575 530.568L730.455 531.6C730.439 531.76 730.351 531.896 730.191 532.008C730.047 532.12 729.879 532.176 729.687 532.176ZM727.599 550.416C726.959 550.416 726.359 550.192 725.799 549.744C725.223 549.312 724.807 548.76 724.551 548.088C724.503 547.896 724.479 547.784 724.479 547.752C724.479 547.56 724.551 547.392 724.695 547.248C724.839 547.104 725.023 547.032 725.247 547.032C725.407 547.032 725.559 547.08 725.703 547.176C725.831 547.272 725.919 547.4 725.967 547.56C726.159 548.072 726.383 548.448 726.639 548.688C726.895 548.928 727.215 549.048 727.599 549.048C728.015 549.048 728.359 548.8 728.631 548.304C728.903 547.824 729.039 547.152 729.039 546.288L728.967 540.696L728.871 534.864C728.871 534.64 728.943 534.456 729.087 534.312C729.231 534.168 729.415 534.096 729.639 534.096C729.831 534.096 729.999 534.176 730.143 534.336C730.303 534.48 730.383 534.648 730.383 534.84L730.527 546.096C730.527 547.456 730.263 548.512 729.735 549.264C729.207 550.032 728.495 550.416 727.599 550.416ZM742.151 546.336C741.911 546.336 741.727 546.256 741.599 546.096C741.471 545.952 741.407 545.768 741.407 545.544V544.872C740.975 545.256 740.455 545.568 739.847 545.808C739.239 546.032 738.631 546.144 738.023 546.144C737.159 546.144 736.383 545.928 735.695 545.496C735.007 545.064 734.463 544.456 734.063 543.672C733.679 542.872 733.487 541.968 733.487 540.96C733.487 539.872 733.711 538.808 734.159 537.768C734.623 536.712 735.287 535.848 736.151 535.176C737.031 534.504 738.063 534.168 739.247 534.168C739.983 534.168 740.631 534.264 741.191 534.456C741.751 534.648 742.319 534.88 742.895 535.152V545.544C742.895 545.768 742.823 545.952 742.679 546.096C742.535 546.256 742.359 546.336 742.151 546.336ZM738.023 544.728C738.647 544.728 739.271 544.584 739.895 544.296C740.519 543.992 740.999 543.672 741.335 543.336L741.431 536.064C741.175 535.952 740.839 535.848 740.423 535.752C740.023 535.64 739.647 535.584 739.295 535.584C738.511 535.584 737.791 535.816 737.135 536.28C736.479 536.744 735.959 537.384 735.575 538.2C735.207 539 735.023 539.904 735.023 540.912C735.023 542.08 735.303 543.008 735.863 543.696C736.423 544.384 737.143 544.728 738.023 544.728ZM749.654 546.168C749.334 546.168 749.102 545.992 748.958 545.64L744.686 535.176C744.654 535.048 744.638 534.96 744.638 534.912C744.638 534.704 744.71 534.528 744.854 534.384C745.014 534.24 745.206 534.168 745.43 534.168C745.734 534.168 745.966 534.336 746.126 534.672L749.654 543.576L753.206 534.6C753.27 534.472 753.358 534.368 753.47 534.288C753.598 534.192 753.742 534.144 753.902 534.144C754.11 534.144 754.286 534.224 754.43 534.384C754.59 534.528 754.67 534.696 754.67 534.888C754.67 534.984 754.638 535.096 754.574 535.224L750.35 545.688C750.206 546.008 749.974 546.168 749.654 546.168ZM764.088 546.336C763.848 546.336 763.664 546.256 763.536 546.096C763.408 545.952 763.344 545.768 763.344 545.544V544.872C762.912 545.256 762.392 545.568 761.784 545.808C761.176 546.032 760.568 546.144 759.96 546.144C759.096 546.144 758.32 545.928 757.632 545.496C756.944 545.064 756.4 544.456 756 543.672C755.616 542.872 755.424 541.968 755.424 540.96C755.424 539.872 755.648 538.808 756.096 537.768C756.56 536.712 757.224 535.848 758.088 535.176C758.968 534.504 760 534.168 761.184 534.168C761.92 534.168 762.568 534.264 763.128 534.456C763.688 534.648 764.256 534.88 764.832 535.152V545.544C764.832 545.768 764.76 545.952 764.616 546.096C764.472 546.256 764.296 546.336 764.088 546.336ZM759.96 544.728C760.584 544.728 761.208 544.584 761.832 544.296C762.456 543.992 762.936 543.672 763.272 543.336L763.368 536.064C763.112 535.952 762.776 535.848 762.36 535.752C761.96 535.64 761.584 535.584 761.232 535.584C760.448 535.584 759.728 535.816 759.072 536.28C758.416 536.744 757.896 537.384 757.512 538.2C757.144 539 756.96 539.904 756.96 540.912C756.96 542.08 757.24 543.008 757.8 543.696C758.36 544.384 759.08 544.728 759.96 544.728ZM769.647 545.952C769.455 545.952 769.279 545.88 769.119 545.736C768.975 545.576 768.903 545.4 768.903 545.208C768.903 544.936 769.023 544.72 769.263 544.56L775.815 540.216L768.807 535.728C768.695 535.664 768.607 535.576 768.543 535.464C768.479 535.352 768.447 535.232 768.447 535.104C768.447 534.896 768.519 534.72 768.663 534.576C768.823 534.416 769.007 534.336 769.215 534.336C769.327 534.336 769.463 534.376 769.623 534.456L777.591 539.568C777.703 539.632 777.791 539.728 777.855 539.856C777.919 539.968 777.951 540.08 777.951 540.192C777.951 540.496 777.839 540.712 777.615 540.84L770.079 545.832C769.951 545.912 769.807 545.952 769.647 545.952Z" fill="#D35252"/>
<path id="&#60;/css&#62;" d="M403.816 613.952C403.688 613.952 403.544 613.912 403.384 613.832L395.848 608.84C395.736 608.776 395.648 608.688 395.584 608.576C395.536 608.448 395.512 608.32 395.512 608.192C395.512 608.08 395.544 607.968 395.608 607.856C395.672 607.728 395.76 607.632 395.872 607.568L403.864 602.456C403.992 602.376 404.128 602.336 404.272 602.336C404.464 602.336 404.632 602.416 404.776 602.576C404.936 602.72 405.016 602.896 405.016 603.104C405.016 603.216 404.984 603.336 404.92 603.464C404.856 603.576 404.768 603.664 404.656 603.728L397.648 608.216L404.224 612.56C404.336 612.624 404.416 612.72 404.464 612.848C404.528 612.96 404.56 613.08 404.56 613.208C404.56 613.4 404.488 613.576 404.344 613.736C404.2 613.88 404.024 613.952 403.816 613.952ZM407.674 616.928C407.482 616.928 407.322 616.864 407.194 616.736C407.066 616.608 407.002 616.456 407.002 616.28C407.002 616.152 407.026 616.024 407.074 615.896L414.682 597.872C414.794 597.648 415.002 597.536 415.306 597.536C415.482 597.536 415.634 597.608 415.762 597.752C415.906 597.88 415.978 598.016 415.978 598.16C415.978 598.288 415.946 598.416 415.882 598.544C415.818 598.672 415.778 598.744 415.762 598.76L408.25 616.592C408.218 616.704 408.146 616.784 408.034 616.832C407.938 616.896 407.818 616.928 407.674 616.928ZM420.656 614.144C419.728 614.144 418.856 613.92 418.04 613.472C417.24 613.008 416.6 612.376 416.12 611.576C415.656 610.776 415.424 609.896 415.424 608.936C415.424 607.848 415.672 606.784 416.168 605.744C416.68 604.688 417.352 603.832 418.184 603.176C419.016 602.504 419.88 602.168 420.776 602.168C421.608 602.168 422.288 602.304 422.816 602.576C423.36 602.848 423.88 603.272 424.376 603.848C424.504 603.976 424.568 604.144 424.568 604.352C424.568 604.56 424.496 604.736 424.352 604.88C424.224 605.024 424.056 605.096 423.848 605.096C423.624 605.096 423.44 605.008 423.296 604.832C422.944 604.416 422.584 604.104 422.216 603.896C421.848 603.672 421.384 603.56 420.824 603.56C420.184 603.56 419.56 603.816 418.952 604.328C418.344 604.84 417.848 605.512 417.464 606.344C417.08 607.16 416.888 608.008 416.888 608.888C416.888 609.688 417.072 610.384 417.44 610.976C417.824 611.552 418.304 611.992 418.88 612.296C419.472 612.6 420.064 612.752 420.656 612.752C422.032 612.752 423.104 612.2 423.872 611.096C424.08 610.808 424.304 610.664 424.544 610.664C424.752 610.664 424.928 610.736 425.072 610.88C425.216 611.024 425.288 611.192 425.288 611.384C425.288 611.544 425.208 611.728 425.048 611.936C424.632 612.544 424.032 613.064 423.248 613.496C422.464 613.928 421.6 614.144 420.656 614.144ZM430.842 614.192C429.93 614.192 429.138 614.008 428.466 613.64C427.81 613.256 427.306 612.816 426.954 612.32C426.618 611.808 426.45 611.376 426.45 611.024C426.45 610.816 426.514 610.648 426.642 610.52C426.786 610.376 426.962 610.304 427.17 610.304C427.522 610.304 427.746 610.472 427.842 610.808C428.066 611.448 428.442 611.944 428.97 612.296C429.498 612.648 430.146 612.824 430.914 612.824C431.682 612.824 432.314 612.616 432.81 612.2C433.306 611.784 433.554 611.288 433.554 610.712C433.554 610.376 433.474 610.096 433.314 609.872C433.17 609.632 432.898 609.408 432.498 609.2C432.114 608.992 431.546 608.776 430.794 608.552C429.498 608.152 428.562 607.688 427.986 607.16C427.41 606.632 427.122 605.936 427.122 605.072C427.122 604.208 427.474 603.512 428.178 602.984C428.898 602.44 429.922 602.168 431.25 602.168C432.45 602.168 433.37 602.416 434.01 602.912C434.666 603.392 434.994 604.056 434.994 604.904C434.994 605.288 434.93 605.584 434.802 605.792C434.674 605.984 434.49 606.08 434.25 606.08C434.042 606.08 433.866 606.016 433.722 605.888C433.578 605.744 433.506 605.584 433.506 605.408C433.506 605.328 433.514 605.24 433.53 605.144C433.562 605.048 433.578 604.96 433.578 604.88C433.578 604.448 433.386 604.112 433.002 603.872C432.618 603.616 432.034 603.488 431.25 603.488C430.386 603.488 429.714 603.632 429.234 603.92C428.77 604.192 428.538 604.584 428.538 605.096C428.538 605.592 428.738 605.984 429.138 606.272C429.554 606.56 430.266 606.872 431.274 607.208C432.234 607.528 432.97 607.832 433.482 608.12C434.01 608.408 434.386 608.752 434.61 609.152C434.85 609.536 434.97 610.032 434.97 610.64C434.97 611.232 434.794 611.8 434.442 612.344C434.106 612.888 433.626 613.336 433.002 613.688C432.378 614.024 431.658 614.192 430.842 614.192ZM440.827 614.192C439.915 614.192 439.123 614.008 438.451 613.64C437.795 613.256 437.291 612.816 436.939 612.32C436.603 611.808 436.435 611.376 436.435 611.024C436.435 610.816 436.499 610.648 436.627 610.52C436.771 610.376 436.947 610.304 437.155 610.304C437.507 610.304 437.731 610.472 437.827 610.808C438.051 611.448 438.427 611.944 438.955 612.296C439.483 612.648 440.131 612.824 440.899 612.824C441.667 612.824 442.299 612.616 442.795 612.2C443.291 611.784 443.539 611.288 443.539 610.712C443.539 610.376 443.459 610.096 443.299 609.872C443.155 609.632 442.883 609.408 442.483 609.2C442.099 608.992 441.531 608.776 440.779 608.552C439.483 608.152 438.547 607.688 437.971 607.16C437.395 606.632 437.107 605.936 437.107 605.072C437.107 604.208 437.459 603.512 438.163 602.984C438.883 602.44 439.907 602.168 441.235 602.168C442.435 602.168 443.355 602.416 443.995 602.912C444.651 603.392 444.979 604.056 444.979 604.904C444.979 605.288 444.915 605.584 444.787 605.792C444.659 605.984 444.475 606.08 444.235 606.08C444.027 606.08 443.851 606.016 443.707 605.888C443.563 605.744 443.491 605.584 443.491 605.408C443.491 605.328 443.499 605.24 443.515 605.144C443.547 605.048 443.563 604.96 443.563 604.88C443.563 604.448 443.371 604.112 442.987 603.872C442.603 603.616 442.019 603.488 441.235 603.488C440.371 603.488 439.699 603.632 439.219 603.92C438.755 604.192 438.523 604.584 438.523 605.096C438.523 605.592 438.723 605.984 439.123 606.272C439.539 606.56 440.251 606.872 441.259 607.208C442.219 607.528 442.955 607.832 443.467 608.12C443.995 608.408 444.371 608.752 444.595 609.152C444.835 609.536 444.955 610.032 444.955 610.64C444.955 611.232 444.779 611.8 444.427 612.344C444.091 612.888 443.611 613.336 442.987 613.688C442.363 614.024 441.643 614.192 440.827 614.192ZM448.819 613.952C448.627 613.952 448.451 613.88 448.291 613.736C448.147 613.576 448.075 613.4 448.075 613.208C448.075 612.936 448.195 612.72 448.435 612.56L454.987 608.216L447.979 603.728C447.867 603.664 447.779 603.576 447.715 603.464C447.651 603.352 447.619 603.232 447.619 603.104C447.619 602.896 447.691 602.72 447.835 602.576C447.995 602.416 448.179 602.336 448.387 602.336C448.499 602.336 448.635 602.376 448.795 602.456L456.763 607.568C456.875 607.632 456.963 607.728 457.027 607.856C457.091 607.968 457.123 608.08 457.123 608.192C457.123 608.496 457.011 608.712 456.787 608.84L449.251 613.832C449.123 613.912 448.979 613.952 448.819 613.952Z" fill="#D35252"/>
<path id="&#60;/html&#62;" d="M796.816 302.952C796.688 302.952 796.544 302.912 796.384 302.832L788.848 297.84C788.736 297.776 788.648 297.688 788.584 297.576C788.536 297.448 788.512 297.32 788.512 297.192C788.512 297.08 788.544 296.968 788.608 296.856C788.672 296.728 788.76 296.632 788.872 296.568L796.864 291.456C796.992 291.376 797.128 291.336 797.272 291.336C797.464 291.336 797.632 291.416 797.776 291.576C797.936 291.72 798.016 291.896 798.016 292.104C798.016 292.216 797.984 292.336 797.92 292.464C797.856 292.576 797.768 292.664 797.656 292.728L790.648 297.216L797.224 301.56C797.336 301.624 797.416 301.72 797.464 301.848C797.528 301.96 797.56 302.08 797.56 302.208C797.56 302.4 797.488 302.576 797.344 302.736C797.2 302.88 797.024 302.952 796.816 302.952ZM800.674 305.928C800.482 305.928 800.322 305.864 800.194 305.736C800.066 305.608 800.002 305.456 800.002 305.28C800.002 305.152 800.026 305.024 800.074 304.896L807.682 286.872C807.794 286.648 808.002 286.536 808.306 286.536C808.482 286.536 808.634 286.608 808.762 286.752C808.906 286.88 808.978 287.016 808.978 287.16C808.978 287.288 808.946 287.416 808.882 287.544C808.818 287.672 808.778 287.744 808.762 287.76L801.25 305.592C801.218 305.704 801.146 305.784 801.034 305.832C800.938 305.896 800.818 305.928 800.674 305.928ZM812.351 303.168C812.143 303.168 811.959 303.096 811.799 302.952C811.655 302.792 811.583 302.616 811.583 302.424V287.424C811.583 287.216 811.655 287.04 811.799 286.896C811.959 286.736 812.143 286.656 812.351 286.656C812.575 286.656 812.751 286.736 812.879 286.896C813.023 287.04 813.095 287.216 813.095 287.424V294.792C813.575 293.8 814.239 292.936 815.087 292.2C815.951 291.464 816.831 291.096 817.727 291.096C818.911 291.096 819.743 291.752 820.223 293.064C820.703 294.376 820.943 296.432 820.943 299.232C820.943 300.816 820.919 301.88 820.871 302.424C820.855 302.632 820.783 302.808 820.655 302.952C820.527 303.08 820.359 303.144 820.151 303.144C819.959 303.144 819.783 303.072 819.623 302.928C819.479 302.784 819.407 302.616 819.407 302.424C819.407 302.184 819.415 301.96 819.431 301.752L819.455 299.4C819.455 296.696 819.279 294.888 818.927 293.976C818.575 293.048 818.135 292.584 817.607 292.584C817.015 292.584 816.431 292.832 815.855 293.328C815.279 293.808 814.775 294.352 814.343 294.96C813.927 295.552 813.631 296.04 813.455 296.424C813.215 296.904 813.095 297.592 813.095 298.488V302.376C813.095 302.616 813.023 302.808 812.879 302.952C812.735 303.096 812.559 303.168 812.351 303.168ZM825.818 303.168C825.61 303.168 825.426 303.096 825.266 302.952C825.122 302.808 825.05 302.64 825.05 302.448V292.656H822.386C822.178 292.656 822.002 292.584 821.858 292.44C821.714 292.28 821.642 292.096 821.642 291.888C821.642 291.664 821.722 291.488 821.882 291.36C822.042 291.216 822.226 291.144 822.434 291.144H825.05V287.856C825.05 287.648 825.122 287.472 825.266 287.328C825.426 287.168 825.61 287.088 825.818 287.088C826.042 287.088 826.218 287.168 826.346 287.328C826.49 287.472 826.562 287.648 826.562 287.856V291.144H829.25C829.474 291.144 829.658 291.216 829.802 291.36C829.946 291.504 830.018 291.68 830.018 291.888C830.018 292.096 829.938 292.28 829.778 292.44C829.634 292.584 829.458 292.656 829.25 292.656H826.562V302.448C826.562 302.64 826.482 302.808 826.322 302.952C826.178 303.096 826.01 303.168 825.818 303.168ZM832.085 303.144C831.877 303.144 831.693 303.072 831.533 302.928C831.389 302.784 831.317 302.616 831.317 302.424V291.912C831.317 291.72 831.389 291.552 831.533 291.408C831.693 291.248 831.877 291.168 832.085 291.168C832.293 291.168 832.469 291.248 832.613 291.408C832.757 291.552 832.829 291.72 832.829 291.912V294.672C833.357 293.632 834.037 292.792 834.869 292.152C835.717 291.496 836.549 291.168 837.365 291.168C838.053 291.168 838.669 291.376 839.213 291.792C839.773 292.192 840.157 292.888 840.365 293.88C840.941 292.952 841.589 292.272 842.309 291.84C843.029 291.392 843.741 291.168 844.445 291.168C845.421 291.168 846.197 291.528 846.773 292.248C847.365 292.968 847.661 294.088 847.661 295.608V302.424C847.661 302.616 847.581 302.784 847.421 302.928C847.277 303.072 847.101 303.144 846.893 303.144C846.685 303.144 846.509 303.072 846.365 302.928C846.221 302.784 846.149 302.616 846.149 302.424V295.44C846.149 294.448 845.989 293.728 845.669 293.28C845.349 292.816 844.877 292.584 844.253 292.584C843.773 292.584 843.237 292.768 842.645 293.136C842.069 293.504 841.573 294.024 841.157 294.696C840.741 295.368 840.533 296.136 840.533 297V302.424C840.533 302.616 840.461 302.784 840.317 302.928C840.173 303.072 839.997 303.144 839.789 303.144C839.581 303.144 839.397 303.072 839.237 302.928C839.093 302.784 839.021 302.616 839.021 302.424V295.44C839.021 294.432 838.877 293.704 838.589 293.256C838.301 292.808 837.829 292.584 837.173 292.584C836.629 292.584 836.069 292.816 835.493 293.28C834.917 293.728 834.389 294.28 833.909 294.936C833.477 295.544 833.189 296.112 833.045 296.64C832.901 297.168 832.829 297.904 832.829 298.848V302.424C832.829 302.616 832.757 302.784 832.613 302.928C832.469 303.072 832.293 303.144 832.085 303.144ZM851.937 303.144C851.745 303.144 851.569 303.08 851.409 302.952C851.249 302.808 851.169 302.648 851.169 302.472V287.376C851.169 287.168 851.241 287 851.385 286.872C851.529 286.728 851.713 286.656 851.937 286.656C852.129 286.656 852.297 286.728 852.441 286.872C852.601 287.016 852.681 287.184 852.681 287.376V302.472C852.681 302.648 852.601 302.808 852.441 302.952C852.297 303.08 852.129 303.144 851.937 303.144ZM857.499 302.952C857.307 302.952 857.131 302.88 856.971 302.736C856.827 302.576 856.755 302.4 856.755 302.208C856.755 301.936 856.875 301.72 857.115 301.56L863.667 297.216L856.659 292.728C856.547 292.664 856.459 292.576 856.395 292.464C856.331 292.352 856.299 292.232 856.299 292.104C856.299 291.896 856.371 291.72 856.515 291.576C856.675 291.416 856.859 291.336 857.067 291.336C857.179 291.336 857.315 291.376 857.475 291.456L865.443 296.568C865.555 296.632 865.643 296.728 865.707 296.856C865.771 296.968 865.803 297.08 865.803 297.192C865.803 297.496 865.691 297.712 865.467 297.84L857.931 302.832C857.803 302.912 857.659 302.952 857.499 302.952Z" fill="#D35252"/>
</g>
<g id="undraw_Code_thinking_re_gka2 1" clip-path="url(#clip0)">
<path id="Vector" d="M429.018 959.334C429.021 958.892 428.938 958.454 428.773 958.048C428.608 957.642 428.365 957.275 428.06 956.972C427.755 956.669 427.394 956.435 426.999 956.286C426.604 956.136 426.185 956.074 425.766 956.103C425.348 956.133 424.94 956.252 424.567 956.455C424.194 956.658 423.865 956.94 423.601 957.283C423.336 957.625 423.141 958.022 423.029 958.448C422.916 958.874 422.888 959.319 422.946 959.757L414.18 971.855C413.806 972.643 413.661 973.53 413.763 974.405C413.865 975.28 414.21 976.103 414.754 976.773L415.442 977.618L418.597 976.953L422.173 973.628L421.752 969.86L426.169 962.544L426.164 962.539C426.937 962.487 427.662 962.127 428.192 961.532C428.723 960.936 429.018 960.151 429.018 959.334V959.334Z" fill="#FFB9B9"/>
<path id="Vector_2" d="M368.4 1018.48L366.969 1012.88L386.786 1004.4L388.898 1012.66L368.4 1018.48Z" fill="#FFB8B8"/>
<path id="Vector_3" d="M363.613 1021.37L359 1003.31L359.217 1003.25C360.986 1002.75 362.871 1003.01 364.459 1003.97C366.046 1004.93 367.206 1006.52 367.682 1008.38L367.682 1008.38L370.5 1019.41L363.613 1021.37Z" fill="#2F2E41"/>
<path id="Vector_4" d="M395.697 1017.58L391.246 1014.17L401.613 994.456L408.182 999.49L395.697 1017.58Z" fill="#FFB8B8"/>
<path id="Vector_5" d="M393.694 1023L379.343 1012L379.475 1011.81C380.552 1010.25 382.174 1009.2 383.983 1008.9C385.793 1008.6 387.641 1009.07 389.123 1010.2L389.123 1010.2L397.889 1016.92L393.694 1023Z" fill="#2F2E41"/>
<path id="Vector_6" d="M433.531 990.032L422.331 978.565C421.353 977.564 420.066 976.969 418.705 976.889C417.345 976.809 416.002 977.249 414.925 978.129L393.777 1002.89L395.67 1005.99L415.863 991.583L429.535 1010.43L442.576 1003.55L433.531 990.032Z" fill="#2F2E41"/>
<path id="Vector_7" d="M428.693 992.47L420.49 991.805L414.549 990.287C414.214 989.735 413.726 989.305 413.152 989.053C412.578 988.802 411.945 988.741 411.337 988.879C410.729 989.017 410.176 989.348 409.751 989.826C409.326 990.305 409.051 990.909 408.961 991.557C408.871 992.206 408.971 992.868 409.248 993.455C409.525 994.041 409.965 994.525 410.51 994.841C411.055 995.156 411.678 995.289 412.297 995.221C412.915 995.153 413.499 994.888 413.97 994.461L413.97 994.465L417.545 996.017L432.9 1001.56L434.793 1000.01L428.693 992.47Z" fill="#FFB9B9"/>
<path id="Vector_8" d="M448.465 1016.41L443.838 1019.51H438.369L412.918 1009.54L375.688 1016.63L374.636 1008.21L408.711 992.47L438.579 1002.89L448.465 1016.41Z" fill="#2F2E41"/>
<path id="Vector_9" d="M438.579 962.544C443.11 962.544 446.783 958.674 446.783 953.899C446.783 949.125 443.11 945.254 438.579 945.254C434.049 945.254 430.376 949.125 430.376 953.899C430.376 958.674 434.049 962.544 438.579 962.544Z" fill="#FFB9B9"/>
<path id="Vector_10" d="M459.805 988.416C459.805 993.633 459.025 998.818 457.493 1003.78L456.879 1005.77L453.934 1019.96L450.779 1020.84L448.465 1017.74L443.838 1014.19L440.472 1008.43L437.587 1003.36L436.686 1001.78L433.531 985.155L421.542 978.061L417.545 977.396L418.387 974.958L421.963 969.86L425.538 969.416L426.59 968.529L427.431 968.973L432.069 970.856L447.107 964.16L449.307 964.539L456.879 971.19C458.815 976.704 459.805 982.536 459.805 988.416V988.416Z" fill="#CCCCCC"/>
<path id="Vector_11" opacity="0.1" d="M457.51 986.485L449.517 992.027L437.587 1003.36L436.686 1001.78L434.162 988.48H434.793L441.314 975.845L457.51 986.485Z" fill="black"/>
<path id="Vector_12" d="M441.314 974.515L434.793 987.15L431.007 991.583L427.642 992.47L436.686 1002.89L449.517 990.697L457.51 985.155L441.314 974.515Z" fill="#CCCCCC"/>
<path id="Vector_13" d="M442.681 956.448C443.494 956.448 444.153 955.754 444.153 954.897C444.153 954.04 443.494 953.345 442.681 953.345C441.868 953.345 441.209 954.04 441.209 954.897C441.209 955.754 441.868 956.448 442.681 956.448Z" fill="#FFB9B9"/>
<path id="Vector_14" d="M660.413 879H460.348C459.625 879 458.908 879.15 458.24 879.442C457.572 879.733 456.965 880.161 456.454 880.7C455.943 881.239 455.537 881.878 455.26 882.582C454.984 883.287 454.841 884.041 454.841 884.803V1002.28C454.841 1003.04 454.983 1003.8 455.26 1004.5C455.537 1005.21 455.943 1005.85 456.454 1006.38C456.965 1006.92 457.572 1007.35 458.24 1007.64C458.908 1007.93 459.625 1008.08 460.348 1008.08H660.413C661.873 1008.08 663.274 1007.47 664.306 1006.38C665.339 1005.3 665.919 1003.82 665.919 1002.28V884.803C665.919 883.264 665.339 881.788 664.306 880.7C663.274 879.611 661.873 879 660.413 879V879Z" fill="#3F3D56"/>
<path id="Vector_15" d="M658.537 889.256H462.224V1005.96H658.537V889.256Z" fill="#343A55"/>
<path id="Vector_16" d="M560.212 886.073C561.324 886.073 562.226 885.123 562.226 883.951C562.226 882.779 561.324 881.829 560.212 881.829C559.1 881.829 558.199 882.779 558.199 883.951C558.199 885.123 559.1 886.073 560.212 886.073Z" fill="white"/>
<path id="Vector_17" d="M602.394 1005.96H462.224V889.256L602.394 1005.96Z" fill="#33374B"/>
<path id="Vector_18" d="M671.431 1003.84H652.272V1002.39C652.272 1002.35 652.265 1002.31 652.252 1002.28C652.238 1002.24 652.218 1002.21 652.192 1002.18C652.167 1002.15 652.137 1002.13 652.103 1002.12C652.07 1002.1 652.035 1002.1 651.999 1002.1H645.43C645.394 1002.1 645.358 1002.1 645.325 1002.12C645.292 1002.13 645.262 1002.15 645.236 1002.18C645.211 1002.21 645.191 1002.24 645.177 1002.28C645.163 1002.31 645.156 1002.35 645.156 1002.39V1003.84H641.051V1002.39C641.051 1002.35 641.044 1002.31 641.03 1002.28C641.016 1002.24 640.996 1002.21 640.971 1002.18C640.945 1002.15 640.915 1002.13 640.882 1002.12C640.849 1002.1 640.813 1002.1 640.777 1002.1H634.208C634.172 1002.1 634.137 1002.1 634.104 1002.12C634.07 1002.13 634.04 1002.15 634.015 1002.18C633.989 1002.21 633.969 1002.24 633.955 1002.28C633.942 1002.31 633.935 1002.35 633.935 1002.39V1002.39V1003.84H629.829V1002.39C629.829 1002.35 629.822 1002.31 629.808 1002.28C629.795 1002.24 629.774 1002.21 629.749 1002.18C629.724 1002.15 629.693 1002.13 629.66 1002.12C629.627 1002.1 629.591 1002.1 629.555 1002.1H622.987C622.951 1002.1 622.915 1002.1 622.882 1002.12C622.849 1002.13 622.819 1002.15 622.793 1002.18C622.768 1002.21 622.748 1002.24 622.734 1002.28C622.72 1002.31 622.713 1002.35 622.713 1002.39V1002.39V1003.84H618.608V1002.39C618.608 1002.35 618.6 1002.31 618.587 1002.28C618.573 1002.24 618.553 1002.21 618.527 1002.18C618.502 1002.15 618.472 1002.13 618.439 1002.12C618.405 1002.1 618.37 1002.1 618.334 1002.1H611.765C611.729 1002.1 611.694 1002.1 611.66 1002.12C611.627 1002.13 611.597 1002.15 611.572 1002.18C611.546 1002.21 611.526 1002.24 611.512 1002.28C611.498 1002.31 611.491 1002.35 611.491 1002.39V1003.84H607.386V1002.39C607.386 1002.35 607.379 1002.31 607.365 1002.28C607.351 1002.24 607.331 1002.21 607.306 1002.18C607.28 1002.15 607.25 1002.13 607.217 1002.12C607.184 1002.1 607.148 1002.1 607.112 1002.1H600.543C600.508 1002.1 600.472 1002.1 600.439 1002.12C600.406 1002.13 600.375 1002.15 600.35 1002.18C600.325 1002.21 600.304 1002.24 600.291 1002.28C600.277 1002.31 600.27 1002.35 600.27 1002.39V1002.39V1003.84H596.164V1002.39C596.164 1002.35 596.157 1002.31 596.143 1002.28C596.13 1002.24 596.11 1002.21 596.084 1002.18C596.059 1002.15 596.029 1002.13 595.995 1002.12C595.962 1002.1 595.927 1002.1 595.891 1002.1H589.322C589.286 1002.1 589.25 1002.1 589.217 1002.12C589.184 1002.13 589.154 1002.15 589.128 1002.18C589.103 1002.21 589.083 1002.24 589.069 1002.28C589.055 1002.31 589.048 1002.35 589.048 1002.39V1002.39V1003.84H584.943V1002.39C584.943 1002.35 584.936 1002.31 584.922 1002.28C584.908 1002.24 584.888 1002.21 584.863 1002.18C584.837 1002.15 584.807 1002.13 584.774 1002.12C584.741 1002.1 584.705 1002.1 584.669 1002.1H533.214C533.178 1002.1 533.142 1002.1 533.109 1002.12C533.076 1002.13 533.046 1002.15 533.02 1002.18C532.995 1002.21 532.975 1002.24 532.961 1002.28C532.947 1002.31 532.94 1002.35 532.94 1002.39V1002.39V1003.84H528.835V1002.39C528.835 1002.35 528.828 1002.31 528.814 1002.28C528.8 1002.24 528.78 1002.21 528.754 1002.18C528.729 1002.15 528.699 1002.13 528.666 1002.12C528.632 1002.1 528.597 1002.1 528.561 1002.1H521.992C521.956 1002.1 521.921 1002.1 521.887 1002.12C521.854 1002.13 521.824 1002.15 521.799 1002.18C521.773 1002.21 521.753 1002.24 521.739 1002.28C521.726 1002.31 521.718 1002.35 521.718 1002.39V1002.39V1003.84H517.613V1002.39C517.613 1002.35 517.606 1002.31 517.592 1002.28C517.578 1002.24 517.558 1002.21 517.533 1002.18C517.507 1002.15 517.477 1002.13 517.444 1002.12C517.411 1002.1 517.375 1002.1 517.339 1002.1H510.771C510.735 1002.1 510.699 1002.1 510.666 1002.12C510.633 1002.13 510.602 1002.15 510.577 1002.18C510.552 1002.21 510.531 1002.24 510.518 1002.28C510.504 1002.31 510.497 1002.35 510.497 1002.39V1002.39V1003.84H506.391V1002.39C506.391 1002.35 506.384 1002.31 506.371 1002.28C506.357 1002.24 506.337 1002.21 506.311 1002.18C506.286 1002.15 506.256 1002.13 506.222 1002.12C506.189 1002.1 506.154 1002.1 506.118 1002.1H499.549C499.513 1002.1 499.477 1002.1 499.444 1002.12C499.411 1002.13 499.381 1002.15 499.355 1002.18C499.33 1002.21 499.31 1002.24 499.296 1002.28C499.282 1002.31 499.275 1002.35 499.275 1002.39V1002.39V1003.84H495.17V1002.39C495.17 1002.35 495.163 1002.31 495.149 1002.28C495.135 1002.24 495.115 1002.21 495.09 1002.18C495.064 1002.15 495.034 1002.13 495.001 1002.12C494.968 1002.1 494.932 1002.1 494.896 1002.1H488.327C488.291 1002.1 488.256 1002.1 488.223 1002.12C488.189 1002.13 488.159 1002.15 488.134 1002.18C488.108 1002.21 488.088 1002.24 488.074 1002.28C488.061 1002.31 488.054 1002.35 488.054 1002.39V1002.39V1003.84H483.948V1002.39C483.948 1002.35 483.941 1002.31 483.927 1002.28C483.914 1002.24 483.893 1002.21 483.868 1002.18C483.843 1002.15 483.812 1002.13 483.779 1002.12C483.746 1002.1 483.71 1002.1 483.674 1002.1H477.106C477.033 1002.1 476.963 1002.13 476.912 1002.18C476.861 1002.24 476.832 1002.31 476.832 1002.39V1003.84H472.727V1002.39C472.727 1002.35 472.719 1002.31 472.706 1002.28C472.692 1002.24 472.672 1002.21 472.646 1002.18C472.621 1002.15 472.591 1002.13 472.558 1002.12C472.524 1002.1 472.489 1002.1 472.453 1002.1H465.884C465.812 1002.1 465.742 1002.13 465.691 1002.18C465.639 1002.24 465.61 1002.31 465.61 1002.39V1003.84H453.02C451.278 1003.84 449.607 1004.57 448.375 1005.87C447.144 1007.17 446.452 1008.93 446.452 1010.76V1013.89C446.452 1015.73 447.144 1017.49 448.375 1018.79C449.607 1020.09 451.278 1020.82 453.02 1020.82H671.431C673.173 1020.82 674.844 1020.09 676.076 1018.79C677.308 1017.49 678 1015.73 678 1013.89V1010.76C678 1009.85 677.83 1008.95 677.5 1008.11C677.17 1007.27 676.686 1006.51 676.076 1005.87C675.466 1005.23 674.742 1004.72 673.945 1004.37C673.148 1004.02 672.294 1003.84 671.431 1003.84V1003.84Z" fill="#3F3D56"/>
<path id="Vector_19" d="M430.356 951.717L430.785 951.016C431.851 950.8 432.956 950.927 433.948 951.381C434.939 951.834 435.766 952.591 436.314 953.545C436.585 952.532 438.192 952.584 438.787 953.442C439.382 954.3 439.25 955.459 439.057 956.49C438.864 957.522 438.646 958.642 439.114 959.578C439.364 960.014 439.724 960.376 440.156 960.626C440.588 960.876 441.077 961.005 441.575 961C442.572 960.975 443.541 960.662 444.369 960.096C445.891 959.111 447.107 957.709 447.879 956.051C448.65 954.393 448.944 952.547 448.728 950.726C448.527 949.308 448.009 947.956 447.213 946.773C447.669 946.738 448.095 946.528 448.404 946.185C448.618 945.902 448.75 945.564 448.787 945.209C448.824 944.854 448.763 944.495 448.613 944.173C448.348 943.609 447.946 943.124 447.444 942.763C447.805 943.056 448.229 943.257 448.681 943.35C449.236 943.432 449.885 943.138 449.986 942.594C450.082 942.075 449.673 941.604 449.296 941.223C449.051 940.977 448.806 940.73 448.561 940.484C448.688 940.337 448.806 940.183 448.914 940.023C449.322 939.441 449.557 938.752 449.589 938.039C449.622 937.325 449.451 936.617 449.097 936C449.798 937.217 449.183 938.664 447.948 939.651C447.909 939.682 447.864 939.71 447.823 939.741L447.355 939.269C446.988 938.846 446.54 938.505 446.037 938.267C445.519 938.065 444.857 938.125 444.518 938.553C444.156 939.012 444.258 939.742 443.834 940.146C443.463 940.499 442.86 940.44 442.361 940.291C441.862 940.142 441.346 939.924 440.842 940.035C440.503 940.137 440.213 940.364 440.029 940.671C439.844 940.977 439.779 941.343 439.845 941.696C439.901 942.001 440.028 942.287 440.214 942.533C438.819 942.413 437.418 942.408 436.023 942.52C434.381 942.613 432.703 942.729 431.189 943.38C429.674 944.032 428.328 945.328 428.048 946.975C427.769 948.622 428.718 951.572 430.356 951.717Z" fill="#2F2E41"/>
<path id="Vector_20" d="M560.928 913H524.072C523.522 913 522.995 912.789 522.607 912.414C522.218 912.039 522 911.53 522 911C522 910.47 522.218 909.961 522.607 909.586C522.995 909.211 523.522 909 524.072 909H560.928C561.478 909 562.005 909.211 562.393 909.586C562.782 909.961 563 910.47 563 911C563 911.53 562.782 912.039 562.393 912.414C562.005 912.789 561.478 913 560.928 913V913Z" fill="#CCCCCC"/>
<path id="Vector_21" d="M606.928 913H570.072C569.522 913 568.995 912.789 568.607 912.414C568.218 912.039 568 911.53 568 911C568 910.47 568.218 909.961 568.607 909.586C568.995 909.211 569.522 909 570.072 909H606.928C607.478 909 608.005 909.211 608.393 909.586C608.782 909.961 609 910.47 609 911C609 911.53 608.782 912.039 608.393 912.414C608.005 912.789 607.478 913 606.928 913V913Z" fill="#CCCCCC"/>
<path id="Vector_22" d="M606.936 920H543.064C542.517 920 541.992 919.789 541.604 919.414C541.217 919.039 541 918.53 541 918C541 917.47 541.217 916.961 541.604 916.586C541.992 916.211 542.517 916 543.064 916H606.936C607.483 916 608.008 916.211 608.395 916.586C608.783 916.961 609 917.47 609 918C609 918.53 608.783 919.039 608.395 919.414C608.008 919.789 607.483 920 606.936 920Z" fill="#CCCCCC"/>
<path id="Vector_23" d="M560.926 906H524.069C523.52 905.999 522.994 905.788 522.606 905.413C522.218 905.038 522 904.53 522 904C522 903.47 522.218 902.962 522.606 902.587C522.994 902.212 523.52 902.001 524.069 902H560.926C561.198 902 561.468 902.051 561.719 902.152C561.971 902.252 562.2 902.399 562.392 902.585C562.585 902.771 562.738 902.991 562.842 903.234C562.946 903.477 563 903.737 563 904C563 904.263 562.946 904.523 562.842 904.766C562.738 905.009 562.585 905.229 562.392 905.415C562.2 905.601 561.971 905.748 561.719 905.848C561.468 905.949 561.198 906 560.926 906V906Z" fill="#CCCCCC"/>
<path id="Vector_24" d="M581.015 906H570.985C570.459 906 569.954 905.789 569.581 905.414C569.209 905.039 569 904.53 569 904C569 903.47 569.209 902.961 569.581 902.586C569.954 902.211 570.459 902 570.985 902H581.015C581.541 902 582.046 902.211 582.419 902.586C582.791 902.961 583 903.47 583 904C583 904.53 582.791 905.039 582.419 905.414C582.046 905.789 581.541 906 581.015 906Z" fill="#CCCCCC"/>
<path id="Vector_25" d="M534.87 920H524.124C523.561 919.999 523.02 919.788 522.622 919.413C522.224 919.038 522 918.53 522 918C522 917.47 522.224 916.962 522.622 916.587C523.02 916.212 523.561 916.001 524.124 916H534.87C535.15 916 535.427 916.051 535.685 916.152C535.944 916.252 536.178 916.399 536.376 916.585C536.574 916.771 536.731 916.991 536.838 917.234C536.945 917.477 537 917.737 537 918C537 918.263 536.945 918.523 536.838 918.766C536.731 919.009 536.574 919.229 536.376 919.415C536.178 919.601 535.944 919.748 535.685 919.848C535.427 919.949 535.15 920 534.87 920Z" fill="#CCCCCC"/>
<path id="Vector_26" d="M560.928 978H524.072C523.522 978 522.995 977.842 522.607 977.561C522.218 977.279 522 976.898 522 976.5C522 976.102 522.218 975.721 522.607 975.439C522.995 975.158 523.522 975 524.072 975H560.928C561.2 975 561.47 975.039 561.721 975.114C561.972 975.19 562.201 975.3 562.393 975.439C562.586 975.579 562.738 975.744 562.842 975.926C562.946 976.108 563 976.303 563 976.5C563 976.697 562.946 976.892 562.842 977.074C562.738 977.256 562.586 977.421 562.393 977.561C562.201 977.7 561.972 977.81 561.721 977.886C561.47 977.961 561.2 978 560.928 978V978Z" fill="#CCCCCC"/>
<path id="Vector_27" d="M606.928 978H570.072C569.522 978 568.995 977.842 568.607 977.561C568.218 977.279 568 976.898 568 976.5C568 976.102 568.218 975.721 568.607 975.439C568.995 975.158 569.522 975 570.072 975H606.928C607.2 975 607.47 975.039 607.721 975.114C607.972 975.19 608.201 975.3 608.393 975.439C608.586 975.579 608.738 975.744 608.842 975.926C608.946 976.108 609 976.303 609 976.5C609 976.697 608.946 976.892 608.842 977.074C608.738 977.256 608.586 977.421 608.393 977.561C608.201 977.7 607.972 977.81 607.721 977.886C607.47 977.961 607.2 978 606.928 978V978Z" fill="#CCCCCC"/>
<path id="Vector_28" d="M606.934 985H543.064C542.516 985 541.992 984.842 541.604 984.561C541.217 984.279 541 983.898 541 983.5C541 983.102 541.217 982.721 541.604 982.439C541.992 982.158 542.516 982 543.064 982H606.934C607.205 982 607.474 982.038 607.724 982.114C607.975 982.189 608.203 982.299 608.395 982.439C608.587 982.578 608.739 982.743 608.843 982.926C608.947 983.108 609 983.303 609 983.5C609 983.697 608.947 983.892 608.843 984.074C608.739 984.257 608.587 984.422 608.395 984.561C608.203 984.701 607.975 984.811 607.724 984.886C607.474 984.962 607.205 985 606.934 985Z" fill="#CCCCCC"/>
<path id="Vector_29" d="M560.928 971H524.072C523.522 971 522.995 970.789 522.607 970.414C522.218 970.039 522 969.53 522 969C522 968.47 522.218 967.961 522.607 967.586C522.995 967.211 523.522 967 524.072 967H560.928C561.478 967 562.005 967.211 562.393 967.586C562.782 967.961 563 968.47 563 969C563 969.53 562.782 970.039 562.393 970.414C562.005 970.789 561.478 971 560.928 971Z" fill="#CCCCCC"/>
<path id="Vector_30" d="M581.015 971H570.985C570.459 971 569.954 970.842 569.581 970.561C569.209 970.279 569 969.898 569 969.5C569 969.102 569.209 968.721 569.581 968.439C569.954 968.158 570.459 968 570.985 968H581.015C581.541 968 582.046 968.158 582.419 968.439C582.791 968.721 583 969.102 583 969.5C583 969.898 582.791 970.279 582.419 970.561C582.046 970.842 581.541 971 581.015 971V971Z" fill="#CCCCCC"/>
<path id="Vector_31" d="M534.871 985H524.126C523.563 985 523.022 984.842 522.623 984.561C522.224 984.279 522 983.898 522 983.5C522 983.102 522.224 982.721 522.623 982.439C523.022 982.158 523.563 982 524.126 982H534.871C535.15 982 535.427 982.038 535.685 982.114C535.944 982.189 536.178 982.299 536.376 982.439C536.574 982.578 536.731 982.743 536.838 982.926C536.945 983.108 537 983.303 537 983.5C537 983.697 536.945 983.892 536.838 984.074C536.731 984.257 536.574 984.422 536.376 984.561C536.178 984.701 535.944 984.811 535.685 984.886C535.427 984.962 535.15 985 534.871 985Z" fill="#CCCCCC"/>
<path id="Vector_32" d="M551.079 958C550.331 958.002 549.612 957.733 549.079 957.252L535.822 945.283C535.561 945.048 535.355 944.768 535.214 944.46C535.073 944.151 535 943.82 535 943.486C535 943.151 535.073 942.82 535.214 942.512C535.355 942.203 535.561 941.923 535.822 941.688L549.026 929.768C549.576 929.274 550.317 928.998 551.088 929C551.86 929.002 552.599 929.282 553.145 929.78C553.693 930.281 554 930.961 554 931.669C554 932.377 553.693 933.056 553.146 933.558L543.334 942.528C543.028 942.808 542.856 943.188 542.856 943.583C542.856 943.979 543.028 944.359 543.334 944.639L553.092 953.56C553.491 953.924 553.762 954.387 553.872 954.892C553.982 955.397 553.926 955.92 553.71 956.396C553.495 956.871 553.13 957.277 552.661 957.563C552.193 957.849 551.642 958.001 551.079 958V958Z" fill="#EA6467"/>
<path id="Vector_33" d="M573.076 958C572.483 958.001 571.903 957.849 571.41 957.563C570.917 957.277 570.533 956.871 570.306 956.396C570.079 955.92 570.02 955.397 570.136 954.892C570.252 954.387 570.537 953.924 570.957 953.56L581.228 944.639C581.55 944.359 581.731 943.979 581.731 943.583C581.731 943.188 581.55 942.808 581.228 942.528L570.901 933.558C570.615 933.31 570.389 933.015 570.234 932.691C570.08 932.367 570 932.02 570 931.669C570 931.318 570.08 930.971 570.234 930.646C570.389 930.322 570.615 930.028 570.901 929.78V929.78C571.476 929.282 572.254 929.002 573.066 929C573.878 928.998 574.658 929.274 575.237 929.768L589.135 941.688C589.409 941.923 589.627 942.203 589.775 942.512C589.924 942.82 590 943.151 590 943.486C590 943.82 589.924 944.151 589.775 944.46C589.627 944.768 589.409 945.048 589.135 945.283L575.181 957.252C574.62 957.733 573.863 958.001 573.076 958Z" fill="#EA6467"/>
</g>
</g>
<defs>
<filter id="filter0_ii" x="-9.43225" y="-35" width="953.932" height="988.974" filterUnits="userSpaceOnUse" color-interpolation-filters="sRGB">
<feFlood flood-opacity="0" result="BackgroundImageFix"/>
<feBlend mode="normal" in="SourceGraphic" in2="BackgroundImageFix" result="shape"/>
<feColorMatrix in="SourceAlpha" type="matrix" values="0 0 0 0 0 0 0 0 0 0 0 0 0 0 0 0 0 0 127 0" result="hardAlpha"/>
<feOffset dx="10"/>
<feGaussianBlur stdDeviation="25"/>
<feComposite in2="hardAlpha" operator="arithmetic" k2="-1" k3="1"/>
<feColorMatrix type="matrix" values="0 0 0 0 0.0726736 0 0 0 0 0.0952412 0 0 0 0 0.191667 0 0 0 1 0"/>
<feBlend mode="normal" in2="shape" result="effect1_innerShadow"/>
<feColorMatrix in="SourceAlpha" type="matrix" values="0 0 0 0 0 0 0 0 0 0 0 0 0 0 0 0 0 0 127 0" result="hardAlpha"/>
<feOffset dx="-10" dy="4"/>
<feGaussianBlur stdDeviation="5"/>
<feComposite in2="hardAlpha" operator="arithmetic" k2="-1" k3="1"/>
<feColorMatrix type="matrix" values="0 0 0 0 0 0 0 0 0 0 0 0 0 0 0 0 0 0 0.25 0"/>
<feBlend mode="normal" in2="effect1_innerShadow" result="effect2_innerShadow"/>
</filter>
<filter id="filter1_ii" x="49" y="-17" width="910.604" height="952" filterUnits="userSpaceOnUse" color-interpolation-filters="sRGB">
<feFlood flood-opacity="0" result="BackgroundImageFix"/>
<feBlend mode="normal" in="SourceGraphic" in2="BackgroundImageFix" result="shape"/>
<feColorMatrix in="SourceAlpha" type="matrix" values="0 0 0 0 0 0 0 0 0 0 0 0 0 0 0 0 0 0 127 0" result="hardAlpha"/>
<feOffset dx="10"/>
<feGaussianBlur stdDeviation="25"/>
<feComposite in2="hardAlpha" operator="arithmetic" k2="-1" k3="1"/>
<feColorMatrix type="matrix" values="0 0 0 0 0.0883333 0 0 0 0 0.113463 0 0 0 0 0.220833 0 0 0 1 0"/>
<feBlend mode="normal" in2="shape" result="effect1_innerShadow"/>
<feColorMatrix in="SourceAlpha" type="matrix" values="0 0 0 0 0 0 0 0 0 0 0 0 0 0 0 0 0 0 127 0" result="hardAlpha"/>
<feOffset dx="-20" dy="4"/>
<feGaussianBlur stdDeviation="25"/>
<feComposite in2="hardAlpha" operator="arithmetic" k2="-1" k3="1"/>
<feColorMatrix type="matrix" values="0 0 0 0 0 0 0 0 0 0 0 0 0 0 0 0 0 0 0.25 0"/>
<feBlend mode="normal" in2="effect1_innerShadow" result="effect2_innerShadow"/>
</filter>
<filter id="filter2_ii" x="155" y="-16" width="847" height="978" filterUnits="userSpaceOnUse" color-interpolation-filters="sRGB">
<feFlood flood-opacity="0" result="BackgroundImageFix"/>
<feBlend mode="normal" in="SourceGraphic" in2="BackgroundImageFix" result="shape"/>
<feColorMatrix in="SourceAlpha" type="matrix" values="0 0 0 0 0 0 0 0 0 0 0 0 0 0 0 0 0 0 127 0" result="hardAlpha"/>
<feOffset dx="10"/>
<feGaussianBlur stdDeviation="25"/>
<feComposite in2="hardAlpha" operator="arithmetic" k2="-1" k3="1"/>
<feColorMatrix type="matrix" values="0 0 0 0 0.0883333 0 0 0 0 0.113463 0 0 0 0 0.220833 0 0 0 1 0"/>
<feBlend mode="normal" in2="shape" result="effect1_innerShadow"/>
<feColorMatrix in="SourceAlpha" type="matrix" values="0 0 0 0 0 0 0 0 0 0 0 0 0 0 0 0 0 0 127 0" result="hardAlpha"/>
<feOffset dx="-10" dy="4"/>
<feGaussianBlur stdDeviation="25"/>
<feComposite in2="hardAlpha" operator="arithmetic" k2="-1" k3="1"/>
<feColorMatrix type="matrix" values="0 0 0 0 0 0 0 0 0 0 0 0 0 0 0 0 0 0 0.25 0"/>
<feBlend mode="normal" in2="effect1_innerShadow" result="effect2_innerShadow"/>
</filter>
<clipPath id="clip0">
<rect width="319" height="144" fill="white" transform="translate(359 879)"/>
</clipPath>
</defs>
</svg>
