<svg width="100" height="100" viewBox="0 0 100 100" fill="none" xmlns="http://www.w3.org/2000/svg">
<circle cx="50" cy="50" r="50" fill="#222222"/>
<g clip-path="url(#clip0)">
<path d="M50 54.2464C52.4659 54.2464 54.4649 52.3273 54.4649 49.9601C54.4649 47.5929 52.4659 45.6738 50 45.6738C47.5341 45.6738 45.5352 47.5929 45.5352 49.9601C45.5352 52.3273 47.5341 54.2464 50 54.2464Z" fill="#F7F7F7"/>
<path fill-rule="evenodd" clip-rule="evenodd" d="M50.0004 41.2456C55.9951 41.2456 61.564 42.0714 65.7629 43.4591C70.822 45.1312 73.9326 47.6656 73.9326 49.9605C73.9326 52.352 70.636 55.0444 65.2032 56.7724C61.0958 58.0788 55.6909 58.7608 50.0004 58.7608C44.1661 58.7608 38.6413 58.1207 34.4877 56.7581C29.2326 55.0337 26.0674 52.3064 26.0674 49.9605C26.0674 47.6842 29.0373 45.1694 34.0253 43.4999C38.2399 42.0892 43.9463 41.2456 49.9996 41.2456H50.0004Z" stroke="#F7F7F7" stroke-width="2.73408"/>
<path fill-rule="evenodd" clip-rule="evenodd" d="M42.0974 45.628C45.0923 40.6428 48.6194 36.4241 51.9693 33.6254C56.0055 30.2534 59.8464 28.9329 61.9172 30.0792C64.0753 31.2739 64.8579 35.3606 63.7032 40.7418C62.831 44.8103 60.7453 49.6457 57.9025 54.378C54.9878 59.23 51.6503 63.5047 48.346 66.2774C44.1647 69.7863 40.1224 71.0561 38.0055 69.8841C35.9514 68.7477 35.1659 65.0208 36.1513 60.0386C36.9839 55.8289 39.0733 50.662 42.0965 45.6279L42.0974 45.628Z" stroke="#F7F7F7" stroke-width="2.73408"/>
<path fill-rule="evenodd" clip-rule="evenodd" d="M42.1051 54.3906C39.1018 49.411 37.057 44.3696 36.2035 40.1858C35.1761 35.1448 35.9025 31.2906 37.9714 30.1409C40.1274 28.9427 44.2063 30.3327 48.4859 33.9806C51.7216 36.7386 55.0441 40.8873 57.8952 45.6152C60.8183 50.4625 63.0092 55.3733 63.8614 59.5062C64.9398 64.7363 64.067 68.7324 61.9521 69.9077C59.9 71.0482 56.1449 69.8407 52.1408 66.5328C48.7576 63.7381 45.1381 59.4197 42.1051 54.3905V54.3906Z" stroke="#F7F7F7" stroke-width="2.73408"/>
</g>
<defs>
<clipPath id="clip0">
<rect width="50" height="48" fill="white" transform="translate(25 26)"/>
</clipPath>
</defs>
</svg>
