<svg width="100" height="100" viewBox="0 0 100 100" fill="none" xmlns="http://www.w3.org/2000/svg">
<circle cx="50" cy="50" r="50" fill="#222222"/>
<path d="M49.9999 52.952C51.6303 52.952 52.952 51.6303 52.952 49.9999C52.952 48.3695 51.6303 47.0479 49.9999 47.0479C48.3695 47.0479 47.0479 48.3695 47.0479 49.9999C47.0479 51.6303 48.3695 52.952 49.9999 52.952Z" fill="white"/>
<path d="M49.9997 75C43.233 75 39.583 62.1187 39.583 50C39.583 37.8812 43.233 25 49.9997 25C56.7663 25 60.4163 37.8812 60.4163 50C60.4163 62.1187 56.7663 75 49.9997 75ZM49.9997 28.125C46.558 28.125 42.708 37.4792 42.708 50C42.708 62.5208 46.558 71.875 49.9997 71.875C53.4413 71.875 57.2913 62.5208 57.2913 50C57.2913 37.4792 53.4413 28.125 49.9997 28.125Z" fill="white"/>
<path d="M64.3206 65.6398C58.7269 65.6398 51.1873 62.9981 44.6331 59.2439C35.8519 54.2127 29.279 47.6085 27.8873 42.4189C27.3915 40.5668 27.5415 38.9356 28.3331 37.5752C31.8206 31.5773 44.8644 34.7398 55.3686 40.7543C64.1498 45.7856 70.7227 52.3898 72.1144 57.5793C72.6102 59.4335 72.4623 61.0627 71.6706 62.4231C70.3561 64.6793 67.6915 65.6398 64.3206 65.6398V65.6398ZM35.6602 37.5064C33.3144 37.5064 31.6644 38.0627 31.0352 39.146C30.6769 39.7606 30.6331 40.5898 30.9061 41.6106C31.879 45.2377 36.9811 51.2585 46.1873 56.5335C57.0415 62.7523 67.1644 63.9439 68.9665 60.8543C69.3248 60.2398 69.3665 59.4106 69.0956 58.3898C68.1227 54.7627 63.0206 48.7418 53.8144 43.4668C46.7581 39.4252 40.0123 37.5064 35.6602 37.5064V37.5064Z" fill="white"/>
<path d="M35.6791 65.6398C32.3062 65.6398 29.6437 64.6794 28.3312 62.4252C27.5395 61.0648 27.3895 59.4335 27.8874 57.5814C29.277 52.3918 35.852 45.7877 44.6333 40.7564C55.1354 34.7377 68.1791 31.5794 71.6666 37.5752C72.4583 38.9356 72.6083 40.5669 72.1104 42.4189C70.7208 47.6085 64.1458 54.2127 55.3645 59.2439C48.8145 62.9981 41.2729 65.6398 35.6791 65.6398V65.6398ZM64.3395 37.5064C59.9874 37.5064 53.2416 39.4231 46.1874 43.4669C36.9812 48.7419 31.8791 54.7606 30.9062 58.3898C30.6333 59.4106 30.677 60.2398 31.0354 60.8543C32.8374 63.9439 42.9604 62.7564 53.8145 56.5335C63.0208 51.2585 68.1229 45.2398 69.0958 41.6106C69.3687 40.5898 69.3249 39.7606 68.9666 39.146C68.3354 38.0648 66.6854 37.5064 64.3395 37.5064V37.5064Z" fill="white"/>
<path d="M49.9997 54.1664C47.7018 54.1664 45.833 52.2976 45.833 49.9997C45.833 47.7018 47.7018 45.833 49.9997 45.833C52.2976 45.833 54.1663 47.7018 54.1663 49.9997C54.1663 52.2976 52.2976 54.1664 49.9997 54.1664ZM49.9997 48.958C49.4247 48.958 48.958 49.4247 48.958 49.9997C48.958 50.5747 49.4247 51.0413 49.9997 51.0413C50.5747 51.0413 51.0413 50.5747 51.0413 49.9997C51.0413 49.4247 50.5747 48.958 49.9997 48.958Z" fill="white"/>

</svg>
