<svg width="272" height="264" viewBox="0 0 272 264" fill="none" xmlns="http://www.w3.org/2000/svg">
<path id="arrow" d="M135.232 190.768C136.209 191.744 137.791 191.744 138.768 190.768L154.678 174.858C155.654 173.882 155.654 172.299 154.678 171.322C153.701 170.346 152.118 170.346 151.142 171.322L137 185.464L122.858 171.322C121.882 170.346 120.299 170.346 119.322 171.322C118.346 172.299 118.346 173.882 119.322 174.858L135.232 190.768ZM134.5 0V189H139.5V0L134.5 0Z" fill="white"/>
<path id="scrollText" d="M8.75977 234.493C6.34766 233.8 4.58984 232.95 3.48633 231.944C2.39258 230.929 1.8457 229.679 1.8457 228.194C1.8457 226.515 2.51465 225.128 3.85254 224.034C5.2002 222.931 6.94824 222.379 9.09668 222.379C10.5615 222.379 11.8652 222.662 13.0078 223.229C14.1602 223.795 15.0488 224.576 15.6738 225.572C16.3086 226.568 16.626 227.657 16.626 228.839H13.7988C13.7988 227.55 13.3887 226.539 12.5684 225.807C11.748 225.064 10.5908 224.693 9.09668 224.693C7.70996 224.693 6.62598 225.001 5.84473 225.616C5.07324 226.222 4.6875 227.066 4.6875 228.15C4.6875 229.02 5.05371 229.757 5.78613 230.362C6.52832 230.958 7.7832 231.505 9.55078 232.003C11.3281 232.501 12.7148 233.053 13.7109 233.658C14.7168 234.254 15.459 234.952 15.9375 235.753C16.4258 236.554 16.6699 237.496 16.6699 238.58C16.6699 240.309 15.9961 241.695 14.6484 242.74C13.3008 243.775 11.499 244.293 9.24316 244.293C7.77832 244.293 6.41113 244.015 5.1416 243.458C3.87207 242.892 2.89062 242.12 2.19727 241.144C1.51367 240.167 1.17188 239.059 1.17188 237.818H3.99902C3.99902 239.107 4.47266 240.128 5.41992 240.88C6.37695 241.622 7.65137 241.993 9.24316 241.993C10.7275 241.993 11.8652 241.69 12.6562 241.085C13.4473 240.479 13.8428 239.654 13.8428 238.609C13.8428 237.564 13.4766 236.759 12.7441 236.192C12.0117 235.616 10.6836 235.05 8.75977 234.493ZM41.9766 237.232C41.7129 239.488 40.8779 241.231 39.4717 242.462C38.0752 243.683 36.2148 244.293 33.8906 244.293C31.3711 244.293 29.3496 243.39 27.8262 241.583C26.3125 239.776 25.5557 237.359 25.5557 234.332V232.281C25.5557 230.299 25.9072 228.556 26.6104 227.052C27.3232 225.548 28.3291 224.396 29.6279 223.595C30.9268 222.784 32.4307 222.379 34.1396 222.379C36.4053 222.379 38.2217 223.014 39.5889 224.283C40.9561 225.543 41.752 227.291 41.9766 229.527H39.1494C38.9053 227.828 38.373 226.598 37.5527 225.836C36.7422 225.074 35.6045 224.693 34.1396 224.693C32.3428 224.693 30.9316 225.357 29.9062 226.686C28.8906 228.014 28.3828 229.903 28.3828 232.354V234.42C28.3828 236.734 28.8662 238.575 29.833 239.942C30.7998 241.31 32.1523 241.993 33.8906 241.993C35.4531 241.993 36.6494 241.642 37.4795 240.938C38.3193 240.226 38.876 238.99 39.1494 237.232H41.9766ZM59.6514 235.372H54.6416V244H51.8145V222.672H58.875C61.2773 222.672 63.123 223.219 64.4121 224.312C65.7109 225.406 66.3604 226.998 66.3604 229.088C66.3604 230.416 65.999 231.573 65.2764 232.56C64.5635 233.546 63.5674 234.283 62.2881 234.771L67.2979 243.824V244H64.2803L59.6514 235.372ZM54.6416 233.072H58.9629C60.3594 233.072 61.4678 232.711 62.2881 231.988C63.1182 231.266 63.5332 230.299 63.5332 229.088C63.5332 227.77 63.1377 226.759 62.3467 226.056C61.5654 225.353 60.4326 224.996 58.9482 224.986H54.6416V233.072ZM92.7217 234.024C92.7217 236.114 92.3701 237.94 91.667 239.503C90.9639 241.056 89.9678 242.242 88.6787 243.062C87.3896 243.883 85.8857 244.293 84.167 244.293C82.4873 244.293 80.998 243.883 79.6992 243.062C78.4004 242.232 77.3896 241.056 76.667 239.532C75.9541 237.999 75.5879 236.227 75.5684 234.215V232.677C75.5684 230.626 75.9248 228.814 76.6377 227.242C77.3506 225.67 78.3564 224.469 79.6553 223.639C80.9639 222.799 82.458 222.379 84.1377 222.379C85.8467 222.379 87.3506 222.794 88.6494 223.624C89.958 224.444 90.9639 225.641 91.667 227.213C92.3701 228.775 92.7217 230.597 92.7217 232.677V234.024ZM89.9238 232.647C89.9238 230.118 89.416 228.18 88.4004 226.832C87.3848 225.475 85.9639 224.796 84.1377 224.796C82.3604 224.796 80.959 225.475 79.9336 226.832C78.918 228.18 78.3955 230.055 78.3662 232.457V234.024C78.3662 236.476 78.8789 238.404 79.9043 239.811C80.9395 241.207 82.3604 241.905 84.167 241.905C85.9834 241.905 87.3896 241.246 88.3857 239.928C89.3818 238.6 89.8945 236.7 89.9238 234.229V232.647ZM105.768 241.7H115.875V244H102.94V222.672H105.768V241.7ZM127.91 241.7H138.018V244H125.083V222.672H127.91V241.7ZM160.667 244V222.672H166.688C168.543 222.672 170.184 223.082 171.609 223.902C173.035 224.723 174.134 225.89 174.905 227.403C175.687 228.917 176.082 230.655 176.092 232.618V233.98C176.092 235.992 175.701 237.755 174.92 239.269C174.148 240.782 173.04 241.944 171.595 242.755C170.159 243.565 168.484 243.98 166.57 244H160.667ZM163.479 224.986V241.7H166.438C168.606 241.7 170.291 241.026 171.492 239.679C172.703 238.331 173.309 236.412 173.309 233.922V232.677C173.309 230.255 172.737 228.375 171.595 227.037C170.462 225.689 168.851 225.006 166.761 224.986H163.479ZM202.761 234.024C202.761 236.114 202.409 237.94 201.706 239.503C201.003 241.056 200.007 242.242 198.718 243.062C197.429 243.883 195.925 244.293 194.206 244.293C192.526 244.293 191.037 243.883 189.738 243.062C188.439 242.232 187.429 241.056 186.706 239.532C185.993 237.999 185.627 236.227 185.607 234.215V232.677C185.607 230.626 185.964 228.814 186.677 227.242C187.39 225.67 188.396 224.469 189.694 223.639C191.003 222.799 192.497 222.379 194.177 222.379C195.886 222.379 197.39 222.794 198.688 223.624C199.997 224.444 201.003 225.641 201.706 227.213C202.409 228.775 202.761 230.597 202.761 232.677V234.024ZM199.963 232.647C199.963 230.118 199.455 228.18 198.439 226.832C197.424 225.475 196.003 224.796 194.177 224.796C192.399 224.796 190.998 225.475 189.973 226.832C188.957 228.18 188.435 230.055 188.405 232.457V234.024C188.405 236.476 188.918 238.404 189.943 239.811C190.979 241.207 192.399 241.905 194.206 241.905C196.022 241.905 197.429 241.246 198.425 239.928C199.421 238.6 199.934 236.7 199.963 234.229V232.647ZM217.579 237.276L217.989 240.089L218.59 237.555L222.809 222.672H225.182L229.298 237.555L229.884 240.133L230.338 237.262L233.648 222.672H236.476L231.305 244H228.741L224.347 228.458L224.01 226.832L223.673 228.458L219.117 244H216.554L211.397 222.672H214.21L217.579 237.276ZM262.002 244H259.175L248.438 227.564V244H245.61V222.672H248.438L259.204 239.181V222.672H262.002V244Z" fill="white"/>
</svg>
